<svg width="528" height="159" viewBox="0 0 528 159" fill="none" xmlns="http://www.w3.org/2000/svg">
<path d="M2.97656 39H3.67969V33.3633H2.98047L1.48047 34.4414V35.1836L2.91406 34.1445H2.97656V39ZM7.25781 39.1328C8.52344 39.1328 9.25 38.0625 9.25 36.1914C9.25 34.3242 8.51172 33.2305 7.25781 33.2305C5.99609 33.2305 5.25781 34.3203 5.25781 36.1797C5.25781 38.0547 5.98828 39.1328 7.25781 39.1328ZM7.25781 38.5195C6.42578 38.5195 5.96484 37.6875 5.96484 36.1797C5.96484 34.6914 6.43359 33.8477 7.25781 33.8477C8.08203 33.8477 8.54297 34.6836 8.54297 36.1797C8.54297 37.6914 8.08984 38.5195 7.25781 38.5195ZM11.9648 39.0742C12.5469 39.0742 13.0469 38.7969 13.3125 38.3281H13.375V39H14.0156V33.1172H13.3438V35.4531H13.2852C13.0469 34.9922 12.5508 34.7148 11.9648 34.7148C10.8945 34.7148 10.1953 35.5742 10.1953 36.8945C10.1953 38.2188 10.8867 39.0742 11.9648 39.0742ZM12.1211 35.3203C12.8828 35.3203 13.3594 35.9297 13.3594 36.8945C13.3594 37.8672 12.8867 38.4688 12.1211 38.4688C11.3516 38.4688 10.8906 37.8789 10.8906 36.8945C10.8906 35.9141 11.3555 35.3203 12.1211 35.3203ZM17.4141 39.0742C18.4805 39.0742 19.1797 38.2109 19.1797 36.8945C19.1797 35.5703 18.4844 34.7148 17.4141 34.7148C16.8359 34.7148 16.3242 35 16.0938 35.4531H16.0312V33.1172H15.3594V39H16V38.3281H16.0625C16.3281 38.7969 16.8281 39.0742 17.4141 39.0742ZM17.2578 35.3203C18.0273 35.3203 18.4844 35.9102 18.4844 36.8945C18.4844 37.8789 18.0273 38.4688 17.2578 38.4688C16.4922 38.4688 16.0156 37.8672 16.0156 36.8945C16.0156 35.9219 16.4922 35.3203 17.2578 35.3203Z" fill="#4B5563"/>
<path d="M50.5938 34.9492V34.9531H51.2734V34.9492C51.2734 34.2852 51.7188 33.8438 52.3789 33.8438C53 33.8438 53.4805 34.2773 53.4805 34.8398C53.4805 35.293 53.3047 35.5977 52.5781 36.3867L50.6289 38.5156V39H54.2773V38.3672H51.6367V38.3047L52.9922 36.8477C53.918 35.8555 54.1836 35.3984 54.1836 34.8125C54.1836 33.918 53.4102 33.2305 52.3984 33.2305C51.3516 33.2305 50.5938 33.9492 50.5938 34.9492ZM57.3594 39.1328C58.625 39.1328 59.3516 38.0625 59.3516 36.1914C59.3516 34.3242 58.6133 33.2305 57.3594 33.2305C56.0977 33.2305 55.3594 34.3203 55.3594 36.1797C55.3594 38.0547 56.0898 39.1328 57.3594 39.1328ZM57.3594 38.5195C56.5273 38.5195 56.0664 37.6875 56.0664 36.1797C56.0664 34.6914 56.5352 33.8477 57.3594 33.8477C58.1836 33.8477 58.6445 34.6836 58.6445 36.1797C58.6445 37.6914 58.1914 38.5195 57.3594 38.5195ZM62.0664 39.0742C62.6484 39.0742 63.1484 38.7969 63.4141 38.3281H63.4766V39H64.1172V33.1172H63.4453V35.4531H63.3867C63.1484 34.9922 62.6523 34.7148 62.0664 34.7148C60.9961 34.7148 60.2969 35.5742 60.2969 36.8945C60.2969 38.2188 60.9883 39.0742 62.0664 39.0742ZM62.2227 35.3203C62.9844 35.3203 63.4609 35.9297 63.4609 36.8945C63.4609 37.8672 62.9883 38.4688 62.2227 38.4688C61.4531 38.4688 60.9922 37.8789 60.9922 36.8945C60.9922 35.9141 61.457 35.3203 62.2227 35.3203ZM67.5156 39.0742C68.582 39.0742 69.2812 38.2109 69.2812 36.8945C69.2812 35.5703 68.5859 34.7148 67.5156 34.7148C66.9375 34.7148 66.4258 35 66.1953 35.4531H66.1328V33.1172H65.4609V39H66.1016V38.3281H66.1641C66.4297 38.7969 66.9297 39.0742 67.5156 39.0742ZM67.3594 35.3203C68.1289 35.3203 68.5859 35.9102 68.5859 36.8945C68.5859 37.8789 68.1289 38.4688 67.3594 38.4688C66.5938 38.4688 66.1172 37.8672 66.1172 36.8945C66.1172 35.9219 66.5938 35.3203 67.3594 35.3203Z" fill="#4B5563"/>
<path d="M101.781 36.4023H102.496C103.297 36.4023 103.793 36.8086 103.793 37.4609C103.793 38.0781 103.266 38.5195 102.523 38.5195C101.797 38.5195 101.289 38.1328 101.227 37.5312H100.547C100.598 38.4961 101.387 39.1328 102.531 39.1328C103.645 39.1328 104.516 38.4102 104.516 37.4805C104.516 36.7109 104.051 36.1797 103.285 36.082V36.0195C103.902 35.8711 104.273 35.3789 104.273 34.707C104.273 33.8867 103.488 33.2305 102.504 33.2305C101.43 33.2305 100.73 33.832 100.66 34.8086H101.344C101.402 34.2031 101.828 33.8438 102.477 33.8438C103.125 33.8438 103.559 34.2266 103.559 34.8008C103.559 35.3867 103.105 35.8008 102.465 35.8008H101.781V36.4023ZM107.539 39.1328C108.805 39.1328 109.531 38.0625 109.531 36.1914C109.531 34.3242 108.793 33.2305 107.539 33.2305C106.277 33.2305 105.539 34.3203 105.539 36.1797C105.539 38.0547 106.27 39.1328 107.539 39.1328ZM107.539 38.5195C106.707 38.5195 106.246 37.6875 106.246 36.1797C106.246 34.6914 106.715 33.8477 107.539 33.8477C108.363 33.8477 108.824 34.6836 108.824 36.1797C108.824 37.6914 108.371 38.5195 107.539 38.5195ZM112.246 39.0742C112.828 39.0742 113.328 38.7969 113.594 38.3281H113.656V39H114.297V33.1172H113.625V35.4531H113.566C113.328 34.9922 112.832 34.7148 112.246 34.7148C111.176 34.7148 110.477 35.5742 110.477 36.8945C110.477 38.2188 111.168 39.0742 112.246 39.0742ZM112.402 35.3203C113.164 35.3203 113.641 35.9297 113.641 36.8945C113.641 37.8672 113.168 38.4688 112.402 38.4688C111.633 38.4688 111.172 37.8789 111.172 36.8945C111.172 35.9141 111.637 35.3203 112.402 35.3203ZM117.695 39.0742C118.762 39.0742 119.461 38.2109 119.461 36.8945C119.461 35.5703 118.766 34.7148 117.695 34.7148C117.117 34.7148 116.605 35 116.375 35.4531H116.312V33.1172H115.641V39H116.281V38.3281H116.344C116.609 38.7969 117.109 39.0742 117.695 39.0742ZM117.539 35.3203C118.309 35.3203 118.766 35.9102 118.766 36.8945C118.766 37.8789 118.309 38.4688 117.539 38.4688C116.773 38.4688 116.297 37.8672 116.297 36.8945C116.297 35.9219 116.773 35.3203 117.539 35.3203Z" fill="#4B5563"/>
<path d="M153.203 39H153.891V37.832H154.691V37.2031H153.891V33.3633H152.871C151.855 34.8828 150.961 36.2969 150.457 37.1914V37.832H153.203V39ZM151.176 37.1602C151.848 36.0195 152.582 34.8555 153.16 34.0156H153.207V37.207H151.176V37.1602ZM157.672 39.1328C158.938 39.1328 159.664 38.0625 159.664 36.1914C159.664 34.3242 158.926 33.2305 157.672 33.2305C156.41 33.2305 155.672 34.3203 155.672 36.1797C155.672 38.0547 156.402 39.1328 157.672 39.1328ZM157.672 38.5195C156.84 38.5195 156.379 37.6875 156.379 36.1797C156.379 34.6914 156.848 33.8477 157.672 33.8477C158.496 33.8477 158.957 34.6836 158.957 36.1797C158.957 37.6914 158.504 38.5195 157.672 38.5195ZM162.379 39.0742C162.961 39.0742 163.461 38.7969 163.727 38.3281H163.789V39H164.43V33.1172H163.758V35.4531H163.699C163.461 34.9922 162.965 34.7148 162.379 34.7148C161.309 34.7148 160.609 35.5742 160.609 36.8945C160.609 38.2188 161.301 39.0742 162.379 39.0742ZM162.535 35.3203C163.297 35.3203 163.773 35.9297 163.773 36.8945C163.773 37.8672 163.301 38.4688 162.535 38.4688C161.766 38.4688 161.305 37.8789 161.305 36.8945C161.305 35.9141 161.77 35.3203 162.535 35.3203ZM167.828 39.0742C168.895 39.0742 169.594 38.2109 169.594 36.8945C169.594 35.5703 168.898 34.7148 167.828 34.7148C167.25 34.7148 166.738 35 166.508 35.4531H166.445V33.1172H165.773V39H166.414V38.3281H166.477C166.742 38.7969 167.242 39.0742 167.828 39.0742ZM167.672 35.3203C168.441 35.3203 168.898 35.9102 168.898 36.8945C168.898 37.8789 168.441 38.4688 167.672 38.4688C166.906 38.4688 166.43 37.8672 166.43 36.8945C166.43 35.9219 166.906 35.3203 167.672 35.3203Z" fill="#4B5563"/>
<path d="M203.488 39.1328C204.656 39.1328 205.457 38.3516 205.457 37.207C205.457 36.0977 204.707 35.3203 203.637 35.3203C203.117 35.3203 202.719 35.4805 202.445 35.8008H202.383L202.543 33.9922H205.137V33.3633H201.992L201.684 36.5586H202.344C202.574 36.1562 202.996 35.9258 203.508 35.9258C204.246 35.9258 204.754 36.4531 204.754 37.2266C204.754 38 204.25 38.5156 203.496 38.5156C202.832 38.5156 202.348 38.1094 202.285 37.5H201.594C201.656 38.4727 202.422 39.1328 203.488 39.1328ZM208.477 39.1328C209.742 39.1328 210.469 38.0625 210.469 36.1914C210.469 34.3242 209.73 33.2305 208.477 33.2305C207.215 33.2305 206.477 34.3203 206.477 36.1797C206.477 38.0547 207.207 39.1328 208.477 39.1328ZM208.477 38.5195C207.645 38.5195 207.184 37.6875 207.184 36.1797C207.184 34.6914 207.652 33.8477 208.477 33.8477C209.301 33.8477 209.762 34.6836 209.762 36.1797C209.762 37.6914 209.309 38.5195 208.477 38.5195ZM213.184 39.0742C213.766 39.0742 214.266 38.7969 214.531 38.3281H214.594V39H215.234V33.1172H214.562V35.4531H214.504C214.266 34.9922 213.77 34.7148 213.184 34.7148C212.113 34.7148 211.414 35.5742 211.414 36.8945C211.414 38.2188 212.105 39.0742 213.184 39.0742ZM213.34 35.3203C214.102 35.3203 214.578 35.9297 214.578 36.8945C214.578 37.8672 214.105 38.4688 213.34 38.4688C212.57 38.4688 212.109 37.8789 212.109 36.8945C212.109 35.9141 212.574 35.3203 213.34 35.3203ZM218.633 39.0742C219.699 39.0742 220.398 38.2109 220.398 36.8945C220.398 35.5703 219.703 34.7148 218.633 34.7148C218.055 34.7148 217.543 35 217.312 35.4531H217.25V33.1172H216.578V39H217.219V38.3281H217.281C217.547 38.7969 218.047 39.0742 218.633 39.0742ZM218.477 35.3203C219.246 35.3203 219.703 35.9102 219.703 36.8945C219.703 37.8789 219.246 38.4688 218.477 38.4688C217.711 38.4688 217.234 37.8672 217.234 36.8945C217.234 35.9219 217.711 35.3203 218.477 35.3203Z" fill="#4B5563"/>
<path d="M253.621 39.1289C254.777 39.1289 255.598 38.3203 255.598 37.1875C255.598 36.0938 254.82 35.3008 253.746 35.3008C253.074 35.3008 252.523 35.6211 252.246 36.168H252.184C252.223 34.668 252.742 33.8555 253.66 33.8555C254.215 33.8555 254.641 34.1758 254.793 34.7031H255.516C255.336 33.7969 254.625 33.2305 253.668 33.2305C252.289 33.2305 251.5 34.3398 251.5 36.2773C251.5 36.8984 251.59 37.418 251.773 37.8477C252.125 38.6758 252.773 39.1289 253.621 39.1289ZM253.613 38.5117C252.891 38.5117 252.34 37.9414 252.34 37.1875C252.34 36.4414 252.875 35.9102 253.621 35.9102C254.367 35.9102 254.887 36.4414 254.887 37.2109C254.887 37.9492 254.336 38.5117 253.613 38.5117ZM258.625 39.1328C259.891 39.1328 260.617 38.0625 260.617 36.1914C260.617 34.3242 259.879 33.2305 258.625 33.2305C257.363 33.2305 256.625 34.3203 256.625 36.1797C256.625 38.0547 257.355 39.1328 258.625 39.1328ZM258.625 38.5195C257.793 38.5195 257.332 37.6875 257.332 36.1797C257.332 34.6914 257.801 33.8477 258.625 33.8477C259.449 33.8477 259.91 34.6836 259.91 36.1797C259.91 37.6914 259.457 38.5195 258.625 38.5195ZM263.332 39.0742C263.914 39.0742 264.414 38.7969 264.68 38.3281H264.742V39H265.383V33.1172H264.711V35.4531H264.652C264.414 34.9922 263.918 34.7148 263.332 34.7148C262.262 34.7148 261.562 35.5742 261.562 36.8945C261.562 38.2188 262.254 39.0742 263.332 39.0742ZM263.488 35.3203C264.25 35.3203 264.727 35.9297 264.727 36.8945C264.727 37.8672 264.254 38.4688 263.488 38.4688C262.719 38.4688 262.258 37.8789 262.258 36.8945C262.258 35.9141 262.723 35.3203 263.488 35.3203ZM268.781 39.0742C269.848 39.0742 270.547 38.2109 270.547 36.8945C270.547 35.5703 269.852 34.7148 268.781 34.7148C268.203 34.7148 267.691 35 267.461 35.4531H267.398V33.1172H266.727V39H267.367V38.3281H267.43C267.695 38.7969 268.195 39.0742 268.781 39.0742ZM268.625 35.3203C269.395 35.3203 269.852 35.9102 269.852 36.8945C269.852 37.8789 269.395 38.4688 268.625 38.4688C267.859 38.4688 267.383 37.8672 267.383 36.8945C267.383 35.9219 267.859 35.3203 268.625 35.3203Z" fill="#4B5563"/>
<path d="M301.84 39H302.578L305.086 34.0156V33.3633H301.473V33.9922H304.383V34.0547L301.84 39ZM307.969 39.1328C309.234 39.1328 309.961 38.0625 309.961 36.1914C309.961 34.3242 309.223 33.2305 307.969 33.2305C306.707 33.2305 305.969 34.3203 305.969 36.1797C305.969 38.0547 306.699 39.1328 307.969 39.1328ZM307.969 38.5195C307.137 38.5195 306.676 37.6875 306.676 36.1797C306.676 34.6914 307.145 33.8477 307.969 33.8477C308.793 33.8477 309.254 34.6836 309.254 36.1797C309.254 37.6914 308.801 38.5195 307.969 38.5195ZM312.676 39.0742C313.258 39.0742 313.758 38.7969 314.023 38.3281H314.086V39H314.727V33.1172H314.055V35.4531H313.996C313.758 34.9922 313.262 34.7148 312.676 34.7148C311.605 34.7148 310.906 35.5742 310.906 36.8945C310.906 38.2188 311.598 39.0742 312.676 39.0742ZM312.832 35.3203C313.594 35.3203 314.07 35.9297 314.07 36.8945C314.07 37.8672 313.598 38.4688 312.832 38.4688C312.062 38.4688 311.602 37.8789 311.602 36.8945C311.602 35.9141 312.066 35.3203 312.832 35.3203ZM318.125 39.0742C319.191 39.0742 319.891 38.2109 319.891 36.8945C319.891 35.5703 319.195 34.7148 318.125 34.7148C317.547 34.7148 317.035 35 316.805 35.4531H316.742V33.1172H316.07V39H316.711V38.3281H316.773C317.039 38.7969 317.539 39.0742 318.125 39.0742ZM317.969 35.3203C318.738 35.3203 319.195 35.9102 319.195 36.8945C319.195 37.8789 318.738 38.4688 317.969 38.4688C317.203 38.4688 316.727 37.8672 316.727 36.8945C316.727 35.9219 317.203 35.3203 317.969 35.3203Z" fill="#4B5563"/>
<path d="M353.555 39.1328C354.75 39.1328 355.586 38.457 355.586 37.4922C355.586 36.7578 355.121 36.1875 354.414 36.0547V35.9922C354.996 35.832 355.355 35.3516 355.355 34.7344C355.355 33.8555 354.609 33.2305 353.555 33.2305C352.5 33.2305 351.754 33.8555 351.754 34.7344C351.754 35.3477 352.121 35.8359 352.695 35.9922V36.0547C351.988 36.1875 351.523 36.7578 351.523 37.4922C351.523 38.457 352.359 39.1328 353.555 39.1328ZM353.555 38.5312C352.773 38.5312 352.234 38.0859 352.234 37.4414C352.234 36.7969 352.773 36.3516 353.555 36.3516C354.336 36.3516 354.875 36.7969 354.875 37.4414C354.875 38.0859 354.336 38.5312 353.555 38.5312ZM353.555 35.7578C352.891 35.7578 352.445 35.375 352.445 34.8008C352.445 34.2188 352.887 33.832 353.555 33.832C354.223 33.832 354.664 34.2188 354.664 34.8008C354.664 35.375 354.219 35.7578 353.555 35.7578ZM358.633 39.1328C359.898 39.1328 360.625 38.0625 360.625 36.1914C360.625 34.3242 359.887 33.2305 358.633 33.2305C357.371 33.2305 356.633 34.3203 356.633 36.1797C356.633 38.0547 357.363 39.1328 358.633 39.1328ZM358.633 38.5195C357.801 38.5195 357.34 37.6875 357.34 36.1797C357.34 34.6914 357.809 33.8477 358.633 33.8477C359.457 33.8477 359.918 34.6836 359.918 36.1797C359.918 37.6914 359.465 38.5195 358.633 38.5195ZM363.34 39.0742C363.922 39.0742 364.422 38.7969 364.688 38.3281H364.75V39H365.391V33.1172H364.719V35.4531H364.66C364.422 34.9922 363.926 34.7148 363.34 34.7148C362.27 34.7148 361.57 35.5742 361.57 36.8945C361.57 38.2188 362.262 39.0742 363.34 39.0742ZM363.496 35.3203C364.258 35.3203 364.734 35.9297 364.734 36.8945C364.734 37.8672 364.262 38.4688 363.496 38.4688C362.727 38.4688 362.266 37.8789 362.266 36.8945C362.266 35.9141 362.73 35.3203 363.496 35.3203ZM368.789 39.0742C369.855 39.0742 370.555 38.2109 370.555 36.8945C370.555 35.5703 369.859 34.7148 368.789 34.7148C368.211 34.7148 367.699 35 367.469 35.4531H367.406V33.1172H366.734V39H367.375V38.3281H367.438C367.703 38.7969 368.203 39.0742 368.789 39.0742ZM368.633 35.3203C369.402 35.3203 369.859 35.9102 369.859 36.8945C369.859 37.8789 369.402 38.4688 368.633 38.4688C367.867 38.4688 367.391 37.8672 367.391 36.8945C367.391 35.9219 367.867 35.3203 368.633 35.3203Z" fill="#4B5563"/>
<path d="M403.43 39.1289C404.809 39.1289 405.598 38.0195 405.598 36.082C405.598 35.4609 405.508 34.9414 405.324 34.5117C404.973 33.6797 404.32 33.2305 403.477 33.2305C402.32 33.2305 401.5 34.0391 401.5 35.1719C401.5 36.2656 402.277 37.0586 403.352 37.0586C404.023 37.0586 404.574 36.7383 404.852 36.1914H404.867H404.883H404.914C404.875 37.6914 404.355 38.5039 403.438 38.5039C402.883 38.5039 402.457 38.1836 402.305 37.6562H401.582C401.762 38.5625 402.473 39.1289 403.43 39.1289ZM403.477 36.4492C402.73 36.4492 402.211 35.918 402.211 35.1484C402.211 34.4102 402.762 33.8477 403.484 33.8477C404.207 33.8477 404.758 34.418 404.758 35.1719C404.758 35.918 404.223 36.4492 403.477 36.4492ZM408.625 39.1328C409.891 39.1328 410.617 38.0625 410.617 36.1914C410.617 34.3242 409.879 33.2305 408.625 33.2305C407.363 33.2305 406.625 34.3203 406.625 36.1797C406.625 38.0547 407.355 39.1328 408.625 39.1328ZM408.625 38.5195C407.793 38.5195 407.332 37.6875 407.332 36.1797C407.332 34.6914 407.801 33.8477 408.625 33.8477C409.449 33.8477 409.91 34.6836 409.91 36.1797C409.91 37.6914 409.457 38.5195 408.625 38.5195ZM413.332 39.0742C413.914 39.0742 414.414 38.7969 414.68 38.3281H414.742V39H415.383V33.1172H414.711V35.4531H414.652C414.414 34.9922 413.918 34.7148 413.332 34.7148C412.262 34.7148 411.562 35.5742 411.562 36.8945C411.562 38.2188 412.254 39.0742 413.332 39.0742ZM413.488 35.3203C414.25 35.3203 414.727 35.9297 414.727 36.8945C414.727 37.8672 414.254 38.4688 413.488 38.4688C412.719 38.4688 412.258 37.8789 412.258 36.8945C412.258 35.9141 412.723 35.3203 413.488 35.3203ZM418.781 39.0742C419.848 39.0742 420.547 38.2109 420.547 36.8945C420.547 35.5703 419.852 34.7148 418.781 34.7148C418.203 34.7148 417.691 35 417.461 35.4531H417.398V33.1172H416.727V39H417.367V38.3281H417.43C417.695 38.7969 418.195 39.0742 418.781 39.0742ZM418.625 35.3203C419.395 35.3203 419.852 35.9102 419.852 36.8945C419.852 37.8789 419.395 38.4688 418.625 38.4688C417.859 38.4688 417.383 37.8672 417.383 36.8945C417.383 35.9219 417.859 35.3203 418.625 35.3203Z" fill="#4B5563"/>
<path d="M452.977 39H453.68V33.3633H452.98L451.48 34.4414V35.1836L452.914 34.1445H452.977V39ZM457.258 39.1328C458.523 39.1328 459.25 38.0625 459.25 36.1914C459.25 34.3242 458.512 33.2305 457.258 33.2305C455.996 33.2305 455.258 34.3203 455.258 36.1797C455.258 38.0547 455.988 39.1328 457.258 39.1328ZM457.258 38.5195C456.426 38.5195 455.965 37.6875 455.965 36.1797C455.965 34.6914 456.434 33.8477 457.258 33.8477C458.082 33.8477 458.543 34.6836 458.543 36.1797C458.543 37.6914 458.09 38.5195 457.258 38.5195ZM462.297 39.1328C463.562 39.1328 464.289 38.0625 464.289 36.1914C464.289 34.3242 463.551 33.2305 462.297 33.2305C461.035 33.2305 460.297 34.3203 460.297 36.1797C460.297 38.0547 461.027 39.1328 462.297 39.1328ZM462.297 38.5195C461.465 38.5195 461.004 37.6875 461.004 36.1797C461.004 34.6914 461.473 33.8477 462.297 33.8477C463.121 33.8477 463.582 34.6836 463.582 36.1797C463.582 37.6914 463.129 38.5195 462.297 38.5195ZM467.004 39.0742C467.586 39.0742 468.086 38.7969 468.352 38.3281H468.414V39H469.055V33.1172H468.383V35.4531H468.324C468.086 34.9922 467.59 34.7148 467.004 34.7148C465.934 34.7148 465.234 35.5742 465.234 36.8945C465.234 38.2188 465.926 39.0742 467.004 39.0742ZM467.16 35.3203C467.922 35.3203 468.398 35.9297 468.398 36.8945C468.398 37.8672 467.926 38.4688 467.16 38.4688C466.391 38.4688 465.93 37.8789 465.93 36.8945C465.93 35.9141 466.395 35.3203 467.16 35.3203ZM472.453 39.0742C473.52 39.0742 474.219 38.2109 474.219 36.8945C474.219 35.5703 473.523 34.7148 472.453 34.7148C471.875 34.7148 471.363 35 471.133 35.4531H471.07V33.1172H470.398V39H471.039V38.3281H471.102C471.367 38.7969 471.867 39.0742 472.453 39.0742ZM472.297 35.3203C473.066 35.3203 473.523 35.9102 473.523 36.8945C473.523 37.8789 473.066 38.4688 472.297 38.4688C471.531 38.4688 471.055 37.8672 471.055 36.8945C471.055 35.9219 471.531 35.3203 472.297 35.3203Z" fill="#4B5563"/>
<path d="M506.977 39H507.68V33.3633H506.98L505.48 34.4414V35.1836L506.914 34.1445H506.977V39ZM510.711 39H511.414V33.3633H510.715L509.215 34.4414V35.1836L510.648 34.1445H510.711V39ZM514.992 39.1328C516.258 39.1328 516.984 38.0625 516.984 36.1914C516.984 34.3242 516.246 33.2305 514.992 33.2305C513.73 33.2305 512.992 34.3203 512.992 36.1797C512.992 38.0547 513.723 39.1328 514.992 39.1328ZM514.992 38.5195C514.16 38.5195 513.699 37.6875 513.699 36.1797C513.699 34.6914 514.168 33.8477 514.992 33.8477C515.816 33.8477 516.277 34.6836 516.277 36.1797C516.277 37.6914 515.824 38.5195 514.992 38.5195ZM519.699 39.0742C520.281 39.0742 520.781 38.7969 521.047 38.3281H521.109V39H521.75V33.1172H521.078V35.4531H521.02C520.781 34.9922 520.285 34.7148 519.699 34.7148C518.629 34.7148 517.93 35.5742 517.93 36.8945C517.93 38.2188 518.621 39.0742 519.699 39.0742ZM519.855 35.3203C520.617 35.3203 521.094 35.9297 521.094 36.8945C521.094 37.8672 520.621 38.4688 519.855 38.4688C519.086 38.4688 518.625 37.8789 518.625 36.8945C518.625 35.9141 519.09 35.3203 519.855 35.3203ZM525.148 39.0742C526.215 39.0742 526.914 38.2109 526.914 36.8945C526.914 35.5703 526.219 34.7148 525.148 34.7148C524.57 34.7148 524.059 35 523.828 35.4531H523.766V33.1172H523.094V39H523.734V38.3281H523.797C524.062 38.7969 524.562 39.0742 525.148 39.0742ZM524.992 35.3203C525.762 35.3203 526.219 35.9102 526.219 36.8945C526.219 37.8789 525.762 38.4688 524.992 38.4688C524.227 38.4688 523.75 37.8672 523.75 36.8945C523.75 35.9219 524.227 35.3203 524.992 35.3203Z" fill="#4B5563"/>
<path d="M2.42188 59.9883H3.77734C4.50391 59.9883 4.94141 60.3906 4.94141 61.0664C4.94141 61.7578 4.53125 62.1445 3.80859 62.1445H2.42188V59.9883ZM2.42188 62.7695H3.80859L5.01562 65H5.83984L4.53516 62.6602C5.24219 62.4375 5.66797 61.8281 5.66797 61.043C5.66797 60.0273 4.95703 59.3633 3.87109 59.3633H1.71875V65H2.42188V62.7695ZM10.3438 60.7891H9.67188V63.2812C9.67188 64.0195 9.22656 64.4609 8.48438 64.4609C7.8125 64.4609 7.49219 64.1094 7.49219 63.3516V60.7891H6.82031V63.5156C6.82031 64.5117 7.35156 65.0742 8.29688 65.0742C8.94141 65.0742 9.42969 64.8086 9.64062 64.3398H9.70312V65H10.3438V60.7891ZM11.6484 65H12.3203V62.5078C12.3203 61.7969 12.7734 61.3203 13.5273 61.3203C14.2109 61.3203 14.5391 61.6914 14.5391 62.4375V65H15.2109V62.2734C15.2109 61.2852 14.6758 60.7148 13.7188 60.7148C13.0742 60.7148 12.5938 60.9883 12.3828 61.4531H12.3203V59.1172H11.6484V65ZM16.4531 65H17.125V60.7891H16.4531V65ZM16.7891 59.9336C17.0469 59.9336 17.2578 59.7227 17.2578 59.4648C17.2578 59.207 17.0469 58.9961 16.7891 58.9961C16.5312 58.9961 16.3203 59.207 16.3203 59.4648C16.3203 59.7227 16.5312 59.9336 16.7891 59.9336ZM21.3594 62.832C21.3594 63.75 20.8906 64.3438 20.1094 64.3438C19.3281 64.3438 18.8906 63.75 18.8906 62.832C18.8906 61.9141 19.3281 61.3203 20.1094 61.3203C20.8867 61.3203 21.3594 61.9141 21.3594 62.832ZM20.1406 66.6172C21.2891 66.6172 22.0156 66.0156 22.0156 65.0742V60.7891H21.375V61.457H21.3125C21.0703 61.0039 20.5508 60.7148 19.9609 60.7148C18.8789 60.7148 18.1953 61.5703 18.1953 62.832C18.1953 64.0938 18.8711 64.9375 19.9609 64.9375C20.5391 64.9375 21.0156 64.6758 21.2812 64.2109H21.3438V65.0391C21.3438 65.6602 20.8945 66.0312 20.1406 66.0312C19.5352 66.0312 19.1602 65.8086 19.0859 65.4648H18.375C18.4766 66.1602 19.125 66.6172 20.1406 66.6172Z" fill="#4B5563"/>
<path d="M494.449 63.5273C494.523 64.5 495.348 65.1328 496.543 65.1328C497.832 65.1328 498.648 64.4727 498.648 63.4375C498.648 62.6094 498.18 62.1562 497.012 61.8633L496.422 61.707C495.645 61.5078 495.336 61.2539 495.336 60.8125C495.336 60.2422 495.832 59.8672 496.582 59.8672C497.285 59.8672 497.762 60.2109 497.859 60.7891H498.566C498.508 59.8789 497.695 59.2305 496.605 59.2305C495.414 59.2305 494.613 59.8789 494.613 60.8359C494.613 61.6367 495.055 62.0977 496.074 62.3555L496.797 62.543C497.574 62.7383 497.926 63.043 497.926 63.5234C497.926 64.082 497.367 64.4922 496.609 64.4922C495.809 64.4922 495.246 64.1172 495.16 63.5273H494.449ZM501.414 61.3086C502.082 61.3086 502.527 61.8008 502.543 62.5469H500.223C500.273 61.8008 500.742 61.3086 501.414 61.3086ZM502.523 63.9102C502.348 64.2812 501.98 64.4805 501.438 64.4805C500.723 64.4805 500.258 63.9531 500.223 63.1211V63.0898H503.25V62.832C503.25 61.5234 502.559 60.7148 501.422 60.7148C500.266 60.7148 499.523 61.5742 499.523 62.8984C499.523 64.2305 500.254 65.0742 501.422 65.0742C502.344 65.0742 502.992 64.6328 503.195 63.9102H502.523ZM504.344 65H505.016V62.5078C505.016 61.7969 505.469 61.3203 506.223 61.3203C506.906 61.3203 507.234 61.6914 507.234 62.4375V65H507.906V62.2734C507.906 61.2852 507.371 60.7148 506.414 60.7148C505.77 60.7148 505.289 60.9883 505.078 61.4531H505.016V59.1172H504.344V65ZM509.133 65H509.805V62.3906C509.805 61.7969 510.27 61.3672 510.91 61.3672C511.043 61.3672 511.285 61.3906 511.34 61.4062V60.7344C511.254 60.7227 511.113 60.7148 511.004 60.7148C510.445 60.7148 509.961 61.0039 509.836 61.4141H509.773V60.7891H509.133V65ZM514.422 65H515.094V59.1172H514.422V65ZM517.695 64.4844C517.207 64.4844 516.844 64.2344 516.844 63.8047C516.844 63.3828 517.125 63.1602 517.766 63.1172L518.898 63.043V63.4297C518.898 64.0312 518.387 64.4844 517.695 64.4844ZM517.57 65.0742C518.133 65.0742 518.594 64.8281 518.867 64.3789H518.93V65H519.57V62.1172C519.57 61.2422 518.996 60.7148 517.969 60.7148C517.07 60.7148 516.406 61.1602 516.316 61.8359H516.996C517.09 61.5039 517.441 61.3125 517.945 61.3125C518.574 61.3125 518.898 61.5977 518.898 62.1172V62.5L517.684 62.5742C516.703 62.6328 516.148 63.0664 516.148 63.8203C516.148 64.5898 516.754 65.0742 517.57 65.0742ZM524.297 60.7891H523.625V63.2812C523.625 64.0195 523.18 64.4609 522.438 64.4609C521.766 64.4609 521.445 64.1094 521.445 63.3516V60.7891H520.773V63.5156C520.773 64.5117 521.305 65.0742 522.25 65.0742C522.895 65.0742 523.383 64.8086 523.594 64.3398H523.656V65H524.297V60.7891ZM525.844 59.7383V60.7891H525.137V61.3516H525.844V63.9062C525.844 64.7109 526.191 65.0312 527.059 65.0312C527.191 65.0312 527.312 65.0156 527.445 64.9922V64.4258C527.32 64.4375 527.262 64.4414 527.141 64.4414C526.703 64.4414 526.516 64.2305 526.516 63.7344V61.3516H527.492V60.7891H526.516V59.7383H525.844Z" fill="#4B5563"/>
<path d="M1.04297 2.54492V11H4.21289C6.74414 11 8.19141 9.44727 8.19141 6.73438C8.19141 4.08008 6.72656 2.54492 4.21289 2.54492H1.04297ZM2.55469 3.85156H4.01367C5.67188 3.85156 6.65039 4.91211 6.65039 6.75781C6.65039 8.64453 5.69531 9.69336 4.01367 9.69336H2.55469V3.85156ZM12.4512 5.61523C13.3242 5.61523 13.8984 6.22461 13.9277 7.17383H10.9102C10.9746 6.23633 11.584 5.61523 12.4512 5.61523ZM13.9395 9.23633C13.7285 9.71094 13.2305 9.97461 12.5098 9.97461C11.5547 9.97461 10.9395 9.30664 10.9043 8.24023V8.16406H15.3809V7.69531C15.3809 5.67383 14.2852 4.46094 12.457 4.46094C10.5996 4.46094 9.44531 5.75586 9.44531 7.81836C9.44531 9.88086 10.582 11.1289 12.4688 11.1289C13.9805 11.1289 15.041 10.4023 15.3164 9.23633H13.9395ZM22.377 6.74609C22.2246 5.39844 21.2285 4.46094 19.582 4.46094C17.6543 4.46094 16.5234 5.69727 16.5234 7.77734C16.5234 9.88672 17.6602 11.1289 19.5879 11.1289C21.2109 11.1289 22.2188 10.2266 22.377 8.88477H20.9941C20.8418 9.55273 20.3379 9.91016 19.582 9.91016C18.5918 9.91016 17.9941 9.125 17.9941 7.77734C17.9941 6.44727 18.5859 5.67969 19.582 5.67969C20.3789 5.67969 20.8594 6.125 20.9941 6.74609H22.377ZM23.7832 11H25.2305V4.58984H23.7832V11ZM24.5039 3.54688C25.0371 3.54688 25.4004 3.20703 25.4004 2.74414C25.4004 2.28125 25.0371 1.94141 24.5039 1.94141C23.9766 1.94141 23.6074 2.28125 23.6074 2.74414C23.6074 3.20703 23.9766 3.54688 24.5039 3.54688ZM30.5977 11.1055C32.2148 11.1055 33.2285 9.83398 33.2285 7.79492C33.2285 5.74414 32.2207 4.48438 30.5977 4.48438C29.7188 4.48438 28.9805 4.91211 28.6465 5.60938H28.5469V2.11133H27.0938V11H28.4941V9.98633H28.5938C28.957 10.6895 29.7012 11.1055 30.5977 11.1055ZM30.1406 5.7207C31.1309 5.7207 31.7344 6.50586 31.7344 7.79492C31.7344 9.08398 31.1367 9.86914 30.1406 9.86914C29.1445 9.86914 28.5234 9.07227 28.5234 7.79492C28.5234 6.51758 29.1504 5.7207 30.1406 5.7207ZM37.377 5.61523C38.25 5.61523 38.8242 6.22461 38.8535 7.17383H35.8359C35.9004 6.23633 36.5098 5.61523 37.377 5.61523ZM38.8652 9.23633C38.6543 9.71094 38.1562 9.97461 37.4355 9.97461C36.4805 9.97461 35.8652 9.30664 35.8301 8.24023V8.16406H40.3066V7.69531C40.3066 5.67383 39.2109 4.46094 37.3828 4.46094C35.5254 4.46094 34.3711 5.75586 34.3711 7.81836C34.3711 9.88086 35.5078 11.1289 37.3945 11.1289C38.9062 11.1289 39.9668 10.4023 40.2422 9.23633H38.8652ZM41.8242 11H43.2773V2.11133H41.8242V11ZM48.082 8.70312C48.1582 10.2383 49.4414 11.2109 51.3809 11.2109C53.4316 11.2109 54.7031 10.1855 54.7031 8.53906C54.7031 7.25 53.9824 6.53516 52.2656 6.14844L51.293 5.92578C50.2441 5.68555 49.8164 5.35156 49.8164 4.7832C49.8164 4.0625 50.4609 3.59375 51.4336 3.59375C52.3594 3.59375 53.0156 4.0625 53.1211 4.80664H54.5684C54.498 3.35352 53.2148 2.33398 51.4395 2.33398C49.5469 2.33398 48.293 3.35352 48.293 4.88867C48.293 6.14844 49.0137 6.91016 50.5488 7.25586L51.6445 7.50781C52.7285 7.75977 53.1914 8.11719 53.1914 8.72656C53.1914 9.43555 52.4707 9.94531 51.4746 9.94531C50.4023 9.94531 49.6523 9.45898 49.5586 8.70312H48.082ZM61.7871 6.74609C61.6348 5.39844 60.6387 4.46094 58.9922 4.46094C57.0645 4.46094 55.9336 5.69727 55.9336 7.77734C55.9336 9.88672 57.0703 11.1289 58.998 11.1289C60.6211 11.1289 61.6289 10.2266 61.7871 8.88477H60.4043C60.252 9.55273 59.748 9.91016 58.9922 9.91016C58.002 9.91016 57.4043 9.125 57.4043 7.77734C57.4043 6.44727 57.9961 5.67969 58.9922 5.67969C59.7891 5.67969 60.2695 6.125 60.4043 6.74609H61.7871ZM65.3672 9.96289C64.7227 9.96289 64.2598 9.64062 64.2598 9.10156C64.2598 8.58008 64.6406 8.28711 65.4551 8.23438L66.9023 8.14062V8.65039C66.9023 9.39453 66.2461 9.96289 65.3672 9.96289ZM64.9395 11.1055C65.7773 11.1055 66.4805 10.7422 66.8379 10.1211H66.9375V11H68.3379V6.62305C68.3379 5.26367 67.4121 4.46094 65.7656 4.46094C64.2422 4.46094 63.1816 5.18164 63.0645 6.3125H64.4355C64.5703 5.87891 65.0273 5.64453 65.6953 5.64453C66.4805 5.64453 66.9023 5.99609 66.9023 6.62305V7.16211L65.25 7.26172C63.6914 7.35547 62.8184 8.02344 62.8184 9.18359C62.8184 10.3555 63.7031 11.1055 64.9395 11.1055ZM70.1484 11H71.6016V2.11133H70.1484V11ZM76.1309 5.61523C77.0039 5.61523 77.5781 6.22461 77.6074 7.17383H74.5898C74.6543 6.23633 75.2637 5.61523 76.1309 5.61523ZM77.6191 9.23633C77.4082 9.71094 76.9102 9.97461 76.1895 9.97461C75.2344 9.97461 74.6191 9.30664 74.584 8.24023V8.16406H79.0605V7.69531C79.0605 5.67383 77.9648 4.46094 76.1367 4.46094C74.2793 4.46094 73.125 5.75586 73.125 7.81836C73.125 9.88086 74.2617 11.1289 76.1484 11.1289C77.6602 11.1289 78.7207 10.4023 78.9961 9.23633H77.6191Z" fill="#4D9AB9"/>
<rect x="1" y="47" width="527" height="4" rx="2" fill="url(#paint0_linear_769_6158)"/>
<circle cx="58.5" cy="49" r="1.5" fill="white" stroke="#4B5563"/>
<path d="M58.5 51L58.5 131" stroke="#4B5563"/>
<path d="M21.8633 136.316H22.8867C23.4727 136.316 23.8398 136.652 23.8398 137.188C23.8398 137.73 23.4922 138.051 22.8984 138.051H21.8633V136.316ZM21.8633 138.957H22.8281L23.8789 141H25.2148L24.0273 138.773C24.6758 138.516 25.0508 137.891 25.0508 137.172C25.0508 136.051 24.2891 135.363 23.0508 135.363H20.6836V141H21.8633V138.957ZM27.6562 140.211C27.2617 140.211 26.9844 140.016 26.9844 139.695C26.9844 139.387 27.2227 139.211 27.7109 139.176L28.582 139.121V139.438C28.582 139.875 28.1836 140.211 27.6562 140.211ZM27.2812 141.066C27.8398 141.066 28.3086 140.832 28.5312 140.438H28.6016V141H29.7031V138.059C29.7031 137.137 29.0586 136.598 27.918 136.598C26.8359 136.598 26.1055 137.098 26.0312 137.895H27.0781C27.1719 137.637 27.4453 137.496 27.8555 137.496C28.3242 137.496 28.582 137.699 28.582 138.059V138.41L27.5391 138.473C26.4688 138.535 25.8711 138.988 25.8711 139.77C25.8711 140.559 26.4531 141.066 27.2812 141.066ZM30.7227 137.957C30.7227 138.621 31.1289 139.02 31.9648 139.203L32.7461 139.379C33.125 139.461 33.2891 139.59 33.2891 139.801C33.2891 140.078 32.9844 140.262 32.543 140.262C32.0898 140.262 31.8125 140.094 31.7266 139.801H30.6172C30.6953 140.629 31.3828 141.094 32.5195 141.094C33.6484 141.094 34.418 140.531 34.418 139.672C34.418 139.027 34.043 138.676 33.207 138.492L32.3984 138.316C32 138.227 31.8164 138.098 31.8164 137.887C31.8164 137.613 32.1172 137.43 32.5234 137.43C32.9453 137.43 33.207 137.602 33.2656 137.879H34.3164C34.2539 137.055 33.6094 136.598 32.5156 136.598C31.4414 136.598 30.7227 137.141 30.7227 137.957ZM39.1641 138.211C39.0703 137.23 38.3867 136.598 37.2461 136.598C35.8984 136.598 35.1406 137.406 35.1406 138.836C35.1406 140.281 35.9023 141.094 37.2461 141.094C38.3672 141.094 39.0703 140.473 39.1641 139.508H38.1016C38.0156 139.934 37.7109 140.16 37.2461 140.16C36.6367 140.16 36.2891 139.695 36.2891 138.836C36.2891 137.988 36.6328 137.531 37.2461 137.531C37.7305 137.531 38.0234 137.801 38.1016 138.211H39.1641ZM40.0938 141H41.2305V138.527C41.2305 137.969 41.6055 137.59 42.1758 137.59C42.7188 137.59 43.0195 137.898 43.0195 138.496V141H44.1562V138.227C44.1562 137.191 43.5898 136.609 42.6328 136.609C42 136.609 41.4805 136.906 41.2812 137.398H41.2109V135.047H40.0938V141ZM47.1211 137.469C47.6523 137.469 47.9961 137.824 48.0195 138.395H46.1836C46.2227 137.836 46.5938 137.469 47.1211 137.469ZM48.043 139.773C47.9219 140.059 47.6133 140.219 47.1641 140.219C46.5703 140.219 46.1953 139.82 46.1797 139.18V139.121H49.1367V138.773C49.1367 137.406 48.3867 136.598 47.1172 136.598C45.8359 136.598 45.0469 137.465 45.0469 138.867C45.0469 140.266 45.8203 141.094 47.1328 141.094C48.1875 141.094 48.9297 140.586 49.1016 139.773H48.043ZM50.1094 141H51.2461V135.047H50.1094V141ZM52.4297 141H53.5664V138.516C53.5664 137.949 53.9258 137.578 54.4883 137.578C55.0273 137.578 55.3086 137.891 55.3086 138.484V141H56.4453V138.215C56.4453 137.184 55.9023 136.598 54.9414 136.598C54.3086 136.598 53.8008 136.898 53.6016 137.383H53.5312V136.691H52.4297V141ZM59.0898 141.066C59.6875 141.066 60.1758 140.789 60.4062 140.324H60.4766V141H61.5781V135.047H60.4414V137.379H60.375C60.1523 136.902 59.6719 136.621 59.0898 136.621C58.0078 136.621 57.3359 137.469 57.3359 138.84C57.3359 140.215 58.0039 141.066 59.0898 141.066ZM59.4766 137.574C60.082 137.574 60.4531 138.062 60.4531 138.848C60.4531 139.637 60.0859 140.117 59.4766 140.117C58.8672 140.117 58.5039 139.641 58.5039 138.844C58.5039 138.055 58.8711 137.574 59.4766 137.574ZM64.6211 137.469C65.1523 137.469 65.4961 137.824 65.5195 138.395H63.6836C63.7227 137.836 64.0938 137.469 64.6211 137.469ZM65.543 139.773C65.4219 140.059 65.1133 140.219 64.6641 140.219C64.0703 140.219 63.6953 139.82 63.6797 139.18V139.121H66.6367V138.773C66.6367 137.406 65.8867 136.598 64.6172 136.598C63.3359 136.598 62.5469 137.465 62.5469 138.867C62.5469 140.266 63.3203 141.094 64.6328 141.094C65.6875 141.094 66.4297 140.586 66.6016 139.773H65.543ZM72.2773 141C73.4805 141 74.2266 140.375 74.2266 139.387C74.2266 138.66 73.6836 138.098 72.9375 138.043V137.973C73.5156 137.887 73.957 137.367 73.957 136.77C73.957 135.898 73.3047 135.363 72.2109 135.363H69.7461V141H72.2773ZM70.9258 136.266H71.9102C72.4727 136.266 72.7969 136.535 72.7969 136.984C72.7969 137.438 72.4492 137.699 71.8125 137.699H70.9258V136.266ZM70.9258 140.098V138.496H71.9492C72.6445 138.496 73.0234 138.77 73.0234 139.285C73.0234 139.812 72.6562 140.098 71.9766 140.098H70.9258ZM75.2188 141H76.3555V135.047H75.2188V141ZM79.0938 140.211C78.6992 140.211 78.4219 140.016 78.4219 139.695C78.4219 139.387 78.6602 139.211 79.1484 139.176L80.0195 139.121V139.438C80.0195 139.875 79.6211 140.211 79.0938 140.211ZM78.7188 141.066C79.2773 141.066 79.7461 140.832 79.9688 140.438H80.0391V141H81.1406V138.059C81.1406 137.137 80.4961 136.598 79.3555 136.598C78.2734 136.598 77.543 137.098 77.4688 137.895H78.5156C78.6094 137.637 78.8828 137.496 79.293 137.496C79.7617 137.496 80.0195 137.699 80.0195 138.059V138.41L78.9766 138.473C77.9062 138.535 77.3086 138.988 77.3086 139.77C77.3086 140.559 77.8906 141.066 78.7188 141.066ZM78.4414 136.113C78.793 136.113 79.0469 135.863 79.0469 135.52C79.0469 135.176 78.793 134.93 78.4414 134.93C78.0898 134.93 77.8359 135.176 77.8359 135.52C77.8359 135.863 78.0898 136.113 78.4414 136.113ZM80.2695 136.113C80.6211 136.113 80.8789 135.863 80.8789 135.52C80.8789 135.176 80.6211 134.93 80.2695 134.93C79.9219 134.93 79.6641 135.176 79.6641 135.52C79.6641 135.863 79.9219 136.113 80.2695 136.113ZM82.582 135.688V136.734H81.8984V137.629H82.582V139.836C82.582 140.676 82.9961 141.016 84.043 141.016C84.2617 141.016 84.4688 140.992 84.6094 140.965V140.098C84.5 140.109 84.4258 140.113 84.2773 140.113C83.8906 140.113 83.7188 139.941 83.7188 139.566V137.629H84.6328V136.734H83.7188V135.688H82.582ZM85.9258 135.688V136.734H85.2422V137.629H85.9258V139.836C85.9258 140.676 86.3398 141.016 87.3867 141.016C87.6055 141.016 87.8125 140.992 87.9531 140.965V140.098C87.8438 140.109 87.7695 140.113 87.6211 140.113C87.2344 140.113 87.0625 139.941 87.0625 139.566V137.629H87.9766V136.734H87.0625V135.688H85.9258ZM90.7383 137.469C91.2695 137.469 91.6133 137.824 91.6367 138.395H89.8008C89.8398 137.836 90.2109 137.469 90.7383 137.469ZM91.6602 139.773C91.5391 140.059 91.2305 140.219 90.7812 140.219C90.1875 140.219 89.8125 139.82 89.7969 139.18V139.121H92.7539V138.773C92.7539 137.406 92.0039 136.598 90.7344 136.598C89.4531 136.598 88.6641 137.465 88.6641 138.867C88.6641 140.266 89.4375 141.094 90.75 141.094C91.8047 141.094 92.5469 140.586 92.7188 139.773H91.6602ZM93.6875 141H94.8242V138.613C94.8242 138.008 95.25 137.641 95.8594 137.641C96.0234 137.641 96.3008 137.676 96.3906 137.711V136.676C96.293 136.641 96.1055 136.621 95.9531 136.621C95.4141 136.621 94.9727 136.949 94.8594 137.379H94.7891V136.691H93.6875V141Z" fill="black"/>
<path d="M49.0938 150.949V150.953H49.7734V150.949C49.7734 150.285 50.2188 149.844 50.8789 149.844C51.5 149.844 51.9805 150.277 51.9805 150.84C51.9805 151.293 51.8047 151.598 51.0781 152.387L49.1289 154.516V155H52.7773V154.367H50.1367V154.305L51.4922 152.848C52.418 151.855 52.6836 151.398 52.6836 150.812C52.6836 149.918 51.9102 149.23 50.8984 149.23C49.8516 149.23 49.0938 149.949 49.0938 150.949ZM55.8594 155.133C57.125 155.133 57.8516 154.062 57.8516 152.191C57.8516 150.324 57.1133 149.23 55.8594 149.23C54.5977 149.23 53.8594 150.32 53.8594 152.18C53.8594 154.055 54.5898 155.133 55.8594 155.133ZM55.8594 154.52C55.0273 154.52 54.5664 153.688 54.5664 152.18C54.5664 150.691 55.0352 149.848 55.8594 149.848C56.6836 149.848 57.1445 150.684 57.1445 152.18C57.1445 153.691 56.6914 154.52 55.8594 154.52ZM60.5664 155.074C61.1484 155.074 61.6484 154.797 61.9141 154.328H61.9766V155H62.6172V149.117H61.9453V151.453H61.8867C61.6484 150.992 61.1523 150.715 60.5664 150.715C59.4961 150.715 58.7969 151.574 58.7969 152.895C58.7969 154.219 59.4883 155.074 60.5664 155.074ZM60.7227 151.32C61.4844 151.32 61.9609 151.93 61.9609 152.895C61.9609 153.867 61.4883 154.469 60.7227 154.469C59.9531 154.469 59.4922 153.879 59.4922 152.895C59.4922 151.914 59.957 151.32 60.7227 151.32ZM66.0156 155.074C67.082 155.074 67.7812 154.211 67.7812 152.895C67.7812 151.57 67.0859 150.715 66.0156 150.715C65.4375 150.715 64.9258 151 64.6953 151.453H64.6328V149.117H63.9609V155H64.6016V154.328H64.6641C64.9297 154.797 65.4297 155.074 66.0156 155.074ZM65.8594 151.32C66.6289 151.32 67.0859 151.91 67.0859 152.895C67.0859 153.879 66.6289 154.469 65.8594 154.469C65.0938 154.469 64.6172 153.867 64.6172 152.895C64.6172 151.922 65.0938 151.32 65.8594 151.32Z" fill="#4B5563"/>
<circle cx="144.5" cy="49" r="1.5" fill="white" stroke="#4B5563"/>
<path d="M144.5 51L144.5 131" stroke="#4B5563"/>
<path d="M120.863 141V139.301L121.422 138.641L123.059 141H124.473L122.273 137.836L124.328 135.363H123.016L120.934 137.875H120.863V135.363H119.684V141H120.863ZM128.973 136.691H127.836V139.176C127.836 139.75 127.473 140.105 126.914 140.105C126.383 140.105 126.074 139.809 126.074 139.207V136.691H124.938V139.48C124.938 140.5 125.547 141.094 126.492 141.094C127.117 141.094 127.598 140.809 127.801 140.309H127.871V141H128.973V136.691ZM126.055 136.113C126.406 136.113 126.66 135.863 126.66 135.52C126.66 135.176 126.406 134.93 126.055 134.93C125.703 134.93 125.449 135.176 125.449 135.52C125.449 135.863 125.703 136.113 126.055 136.113ZM127.883 136.113C128.234 136.113 128.492 135.863 128.492 135.52C128.492 135.176 128.234 134.93 127.883 134.93C127.535 134.93 127.277 135.176 127.277 135.52C127.277 135.863 127.535 136.113 127.883 136.113ZM130.164 141H131.301V138.527C131.301 137.969 131.676 137.59 132.246 137.59C132.789 137.59 133.09 137.898 133.09 138.496V141H134.227V138.227C134.227 137.191 133.66 136.609 132.703 136.609C132.07 136.609 131.551 136.906 131.352 137.398H131.281V135.047H130.164V141ZM135.367 141H136.504V135.047H135.367V141ZM137.59 137.957C137.59 138.621 137.996 139.02 138.832 139.203L139.613 139.379C139.992 139.461 140.156 139.59 140.156 139.801C140.156 140.078 139.852 140.262 139.41 140.262C138.957 140.262 138.68 140.094 138.594 139.801H137.484C137.562 140.629 138.25 141.094 139.387 141.094C140.516 141.094 141.285 140.531 141.285 139.672C141.285 139.027 140.91 138.676 140.074 138.492L139.266 138.316C138.867 138.227 138.684 138.098 138.684 137.887C138.684 137.613 138.984 137.43 139.391 137.43C139.812 137.43 140.074 137.602 140.133 137.879H141.184C141.121 137.055 140.477 136.598 139.383 136.598C138.309 136.598 137.59 137.141 137.59 137.957ZM146.031 138.211C145.938 137.23 145.254 136.598 144.113 136.598C142.766 136.598 142.008 137.406 142.008 138.836C142.008 140.281 142.77 141.094 144.113 141.094C145.234 141.094 145.938 140.473 146.031 139.508H144.969C144.883 139.934 144.578 140.16 144.113 140.16C143.504 140.16 143.156 139.695 143.156 138.836C143.156 137.988 143.5 137.531 144.113 137.531C144.598 137.531 144.891 137.801 144.969 138.211H146.031ZM146.961 141H148.098V138.527C148.098 137.969 148.473 137.59 149.043 137.59C149.586 137.59 149.887 137.898 149.887 138.496V141H151.023V138.227C151.023 137.191 150.457 136.609 149.5 136.609C148.867 136.609 148.348 136.906 148.148 137.398H148.078V135.047H146.961V141ZM152.125 141H153.262V138.613C153.262 138.008 153.688 137.641 154.297 137.641C154.461 137.641 154.738 137.676 154.828 137.711V136.676C154.73 136.641 154.543 136.621 154.391 136.621C153.852 136.621 153.41 136.949 153.297 137.379H153.227V136.691H152.125V141ZM157.055 140.211C156.66 140.211 156.383 140.016 156.383 139.695C156.383 139.387 156.621 139.211 157.109 139.176L157.98 139.121V139.438C157.98 139.875 157.582 140.211 157.055 140.211ZM156.68 141.066C157.238 141.066 157.707 140.832 157.93 140.438H158V141H159.102V138.059C159.102 137.137 158.457 136.598 157.316 136.598C156.234 136.598 155.504 137.098 155.43 137.895H156.477C156.57 137.637 156.844 137.496 157.254 137.496C157.723 137.496 157.98 137.699 157.98 138.059V138.41L156.938 138.473C155.867 138.535 155.27 138.988 155.27 139.77C155.27 140.559 155.852 141.066 156.68 141.066ZM160.219 141H161.355V138.516C161.355 137.949 161.715 137.578 162.277 137.578C162.816 137.578 163.098 137.891 163.098 138.484V141H164.234V138.215C164.234 137.184 163.691 136.598 162.73 136.598C162.098 136.598 161.59 136.898 161.391 137.383H161.32V136.691H160.219V141ZM166.582 138.375H166.512V135.047H165.375V141H166.512V139.57L166.824 139.25L168.082 141H169.43L167.676 138.539L169.316 136.691H168.023L166.582 138.375Z" fill="black"/>
<path d="M137.203 155H137.891V153.832H138.691V153.203H137.891V149.363H136.871C135.855 150.883 134.961 152.297 134.457 153.191V153.832H137.203V155ZM135.176 153.16C135.848 152.02 136.582 150.855 137.16 150.016H137.207V153.207H135.176V153.16ZM141.672 155.133C142.938 155.133 143.664 154.062 143.664 152.191C143.664 150.324 142.926 149.23 141.672 149.23C140.41 149.23 139.672 150.32 139.672 152.18C139.672 154.055 140.402 155.133 141.672 155.133ZM141.672 154.52C140.84 154.52 140.379 153.688 140.379 152.18C140.379 150.691 140.848 149.848 141.672 149.848C142.496 149.848 142.957 150.684 142.957 152.18C142.957 153.691 142.504 154.52 141.672 154.52ZM146.379 155.074C146.961 155.074 147.461 154.797 147.727 154.328H147.789V155H148.43V149.117H147.758V151.453H147.699C147.461 150.992 146.965 150.715 146.379 150.715C145.309 150.715 144.609 151.574 144.609 152.895C144.609 154.219 145.301 155.074 146.379 155.074ZM146.535 151.32C147.297 151.32 147.773 151.93 147.773 152.895C147.773 153.867 147.301 154.469 146.535 154.469C145.766 154.469 145.305 153.879 145.305 152.895C145.305 151.914 145.77 151.32 146.535 151.32ZM151.828 155.074C152.895 155.074 153.594 154.211 153.594 152.895C153.594 151.57 152.898 150.715 151.828 150.715C151.25 150.715 150.738 151 150.508 151.453H150.445V149.117H149.773V155H150.414V154.328H150.477C150.742 154.797 151.242 155.074 151.828 155.074ZM151.672 151.32C152.441 151.32 152.898 151.91 152.898 152.895C152.898 153.879 152.441 154.469 151.672 154.469C150.906 154.469 150.43 153.867 150.43 152.895C150.43 151.922 150.906 151.32 151.672 151.32Z" fill="#4B5563"/>
<circle cx="261" cy="49" r="1.5" fill="white" stroke="#4B5563"/>
<path d="M261 51L261 131" stroke="#4B5563"/>
<path d="M222.812 141V137.473H222.883L225.484 141H226.461V135.363H225.332V138.875H225.262L222.668 135.363H221.684V141H222.812ZM229.629 140.164C229.02 140.164 228.676 139.684 228.676 138.844C228.676 138.016 229.023 137.527 229.629 137.527C230.23 137.527 230.582 138.016 230.582 138.844C230.582 139.68 230.234 140.164 229.629 140.164ZM229.629 141.094C230.953 141.094 231.75 140.254 231.75 138.844C231.75 137.445 230.941 136.598 229.629 136.598C228.316 136.598 227.508 137.449 227.508 138.844C227.508 140.254 228.305 141.094 229.629 141.094ZM232.68 141H233.816V138.613C233.816 138.008 234.242 137.641 234.852 137.641C235.016 137.641 235.293 137.676 235.383 137.711V136.676C235.285 136.641 235.098 136.621 234.945 136.621C234.406 136.621 233.965 136.949 233.852 137.379H233.781V136.691H232.68V141ZM236.172 141H237.309V138.406C237.309 137.926 237.625 137.578 238.07 137.578C238.516 137.578 238.781 137.84 238.781 138.297V141H239.875V138.363C239.875 137.906 240.172 137.578 240.633 137.578C241.113 137.578 241.352 137.832 241.352 138.344V141H242.488V138.043C242.488 137.156 241.953 136.598 241.094 136.598C240.492 136.598 239.996 136.914 239.797 137.395H239.727C239.555 136.895 239.141 136.598 238.535 136.598C237.969 136.598 237.52 136.902 237.344 137.395H237.273V136.691H236.172V141ZM245.148 140.211C244.754 140.211 244.477 140.016 244.477 139.695C244.477 139.387 244.715 139.211 245.203 139.176L246.074 139.121V139.438C246.074 139.875 245.676 140.211 245.148 140.211ZM244.773 141.066C245.332 141.066 245.801 140.832 246.023 140.438H246.094V141H247.195V138.059C247.195 137.137 246.551 136.598 245.41 136.598C244.328 136.598 243.598 137.098 243.523 137.895H244.57C244.664 137.637 244.938 137.496 245.348 137.496C245.816 137.496 246.074 137.699 246.074 138.059V138.41L245.031 138.473C243.961 138.535 243.363 138.988 243.363 139.77C243.363 140.559 243.945 141.066 244.773 141.066ZM248.352 141H249.488V135.047H248.352V141ZM252.535 137.469C253.066 137.469 253.41 137.824 253.434 138.395H251.598C251.637 137.836 252.008 137.469 252.535 137.469ZM253.457 139.773C253.336 140.059 253.027 140.219 252.578 140.219C251.984 140.219 251.609 139.82 251.594 139.18V139.121H254.551V138.773C254.551 137.406 253.801 136.598 252.531 136.598C251.25 136.598 250.461 137.465 250.461 138.867C250.461 140.266 251.234 141.094 252.547 141.094C253.602 141.094 254.344 140.586 254.516 139.773H253.457ZM255.387 137.957C255.387 138.621 255.793 139.02 256.629 139.203L257.41 139.379C257.789 139.461 257.953 139.59 257.953 139.801C257.953 140.078 257.648 140.262 257.207 140.262C256.754 140.262 256.477 140.094 256.391 139.801H255.281C255.359 140.629 256.047 141.094 257.184 141.094C258.312 141.094 259.082 140.531 259.082 139.672C259.082 139.027 258.707 138.676 257.871 138.492L257.062 138.316C256.664 138.227 256.48 138.098 256.48 137.887C256.48 137.613 256.781 137.43 257.188 137.43C257.609 137.43 257.871 137.602 257.93 137.879H258.98C258.918 137.055 258.273 136.598 257.18 136.598C256.105 136.598 255.387 137.141 255.387 137.957ZM267.145 138.699V137.98H264.777V138.867H266L265.996 138.969C265.973 139.648 265.438 140.105 264.664 140.105C263.734 140.105 263.148 139.371 263.148 138.164C263.148 136.98 263.707 136.258 264.617 136.258C265.273 136.258 265.746 136.59 265.922 137.16H267.094C266.93 135.988 265.949 135.219 264.617 135.219C262.977 135.219 261.941 136.359 261.941 138.176C261.941 140.02 262.969 141.145 264.645 141.145C266.184 141.145 267.145 140.207 267.145 138.699ZM270.027 137.469C270.559 137.469 270.902 137.824 270.926 138.395H269.09C269.129 137.836 269.5 137.469 270.027 137.469ZM270.949 139.773C270.828 140.059 270.52 140.219 270.07 140.219C269.477 140.219 269.102 139.82 269.086 139.18V139.121H272.043V138.773C272.043 137.406 271.293 136.598 270.023 136.598C268.742 136.598 267.953 137.465 267.953 138.867C267.953 140.266 268.727 141.094 270.039 141.094C271.094 141.094 271.836 140.586 272.008 139.773H270.949ZM272.879 137.957C272.879 138.621 273.285 139.02 274.121 139.203L274.902 139.379C275.281 139.461 275.445 139.59 275.445 139.801C275.445 140.078 275.141 140.262 274.699 140.262C274.246 140.262 273.969 140.094 273.883 139.801H272.773C272.852 140.629 273.539 141.094 274.676 141.094C275.805 141.094 276.574 140.531 276.574 139.672C276.574 139.027 276.199 138.676 275.363 138.492L274.555 138.316C274.156 138.227 273.973 138.098 273.973 137.887C273.973 137.613 274.273 137.43 274.68 137.43C275.102 137.43 275.363 137.602 275.422 137.879H276.473C276.41 137.055 275.766 136.598 274.672 136.598C273.598 136.598 272.879 137.141 272.879 137.957ZM279.996 136.621C279.402 136.621 278.914 136.914 278.68 137.398H278.609V136.691H277.508V142.348H278.645V140.34H278.715C278.926 140.797 279.398 141.066 280.016 141.066C281.094 141.066 281.754 140.234 281.754 138.844C281.754 137.449 281.086 136.621 279.996 136.621ZM279.609 140.117C279.008 140.117 278.633 139.637 278.633 138.848C278.633 138.059 279.008 137.574 279.613 137.574C280.219 137.574 280.586 138.055 280.586 138.844C280.586 139.641 280.223 140.117 279.609 140.117ZM282.68 141H283.816V138.613C283.816 138.008 284.242 137.641 284.852 137.641C285.016 137.641 285.293 137.676 285.383 137.711V136.676C285.285 136.641 285.098 136.621 284.945 136.621C284.406 136.621 283.965 136.949 283.852 137.379H283.781V136.691H282.68V141ZM287.609 140.211C287.215 140.211 286.938 140.016 286.938 139.695C286.938 139.387 287.176 139.211 287.664 139.176L288.535 139.121V139.438C288.535 139.875 288.137 140.211 287.609 140.211ZM287.234 141.066C287.793 141.066 288.262 140.832 288.484 140.438H288.555V141H289.656V138.059C289.656 137.137 289.012 136.598 287.871 136.598C286.789 136.598 286.059 137.098 285.984 137.895H287.031C287.125 137.637 287.398 137.496 287.809 137.496C288.277 137.496 288.535 137.699 288.535 138.059V138.41L287.492 138.473C286.422 138.535 285.824 138.988 285.824 139.77C285.824 140.559 286.406 141.066 287.234 141.066ZM286.957 136.113C287.309 136.113 287.562 135.863 287.562 135.52C287.562 135.176 287.309 134.93 286.957 134.93C286.605 134.93 286.352 135.176 286.352 135.52C286.352 135.863 286.605 136.113 286.957 136.113ZM288.785 136.113C289.137 136.113 289.395 135.863 289.395 135.52C289.395 135.176 289.137 134.93 288.785 134.93C288.438 134.93 288.18 135.176 288.18 135.52C288.18 135.863 288.438 136.113 288.785 136.113ZM294.586 138.211C294.492 137.23 293.809 136.598 292.668 136.598C291.32 136.598 290.562 137.406 290.562 138.836C290.562 140.281 291.324 141.094 292.668 141.094C293.789 141.094 294.492 140.473 294.586 139.508H293.523C293.438 139.934 293.133 140.16 292.668 140.16C292.059 140.16 291.711 139.695 291.711 138.836C291.711 137.988 292.055 137.531 292.668 137.531C293.152 137.531 293.445 137.801 293.523 138.211H294.586ZM295.516 141H296.652V138.527C296.652 137.969 297.027 137.59 297.598 137.59C298.141 137.59 298.441 137.898 298.441 138.496V141H299.578V138.227C299.578 137.191 299.012 136.609 298.055 136.609C297.422 136.609 296.902 136.906 296.703 137.398H296.633V135.047H295.516V141Z" fill="black"/>
<path d="M253.621 155.129C254.777 155.129 255.598 154.32 255.598 153.188C255.598 152.094 254.82 151.301 253.746 151.301C253.074 151.301 252.523 151.621 252.246 152.168H252.184C252.223 150.668 252.742 149.855 253.66 149.855C254.215 149.855 254.641 150.176 254.793 150.703H255.516C255.336 149.797 254.625 149.23 253.668 149.23C252.289 149.23 251.5 150.34 251.5 152.277C251.5 152.898 251.59 153.418 251.773 153.848C252.125 154.676 252.773 155.129 253.621 155.129ZM253.613 154.512C252.891 154.512 252.34 153.941 252.34 153.188C252.34 152.441 252.875 151.91 253.621 151.91C254.367 151.91 254.887 152.441 254.887 153.211C254.887 153.949 254.336 154.512 253.613 154.512ZM258.625 155.133C259.891 155.133 260.617 154.062 260.617 152.191C260.617 150.324 259.879 149.23 258.625 149.23C257.363 149.23 256.625 150.32 256.625 152.18C256.625 154.055 257.355 155.133 258.625 155.133ZM258.625 154.52C257.793 154.52 257.332 153.688 257.332 152.18C257.332 150.691 257.801 149.848 258.625 149.848C259.449 149.848 259.91 150.684 259.91 152.18C259.91 153.691 259.457 154.52 258.625 154.52ZM263.332 155.074C263.914 155.074 264.414 154.797 264.68 154.328H264.742V155H265.383V149.117H264.711V151.453H264.652C264.414 150.992 263.918 150.715 263.332 150.715C262.262 150.715 261.562 151.574 261.562 152.895C261.562 154.219 262.254 155.074 263.332 155.074ZM263.488 151.32C264.25 151.32 264.727 151.93 264.727 152.895C264.727 153.867 264.254 154.469 263.488 154.469C262.719 154.469 262.258 153.879 262.258 152.895C262.258 151.914 262.723 151.32 263.488 151.32ZM268.781 155.074C269.848 155.074 270.547 154.211 270.547 152.895C270.547 151.57 269.852 150.715 268.781 150.715C268.203 150.715 267.691 151 267.461 151.453H267.398V149.117H266.727V155H267.367V154.328H267.43C267.695 154.797 268.195 155.074 268.781 155.074ZM268.625 151.32C269.395 151.32 269.852 151.91 269.852 152.895C269.852 153.879 269.395 154.469 268.625 154.469C267.859 154.469 267.383 153.867 267.383 152.895C267.383 151.922 267.859 151.32 268.625 151.32Z" fill="#4B5563"/>
<circle cx="362.5" cy="49" r="1.5" fill="white" stroke="#4B5563"/>
<path d="M362.5 51L362.5 131" stroke="#4B5563"/>
<path d="M352.777 141V137.23H352.84L354.277 140.676H355.062L356.496 137.23H356.559V141H357.652V135.363H356.266L354.703 139.152H354.633L353.074 135.363H351.684V141H352.777ZM358.914 141H360.051V136.691H358.914V141ZM359.484 136.09C359.891 136.09 360.156 135.852 360.156 135.516C360.156 135.176 359.891 134.941 359.484 134.941C359.074 134.941 358.812 135.176 358.812 135.516C358.812 135.852 359.074 136.09 359.484 136.09ZM362.969 139.594L363.77 141H365.035L363.672 138.82L365.023 136.691H363.781L363.02 138.105H362.949L362.188 136.691H360.883L362.242 138.871L360.891 141H362.098L362.898 139.594H362.969ZM367.48 137.469C368.012 137.469 368.355 137.824 368.379 138.395H366.543C366.582 137.836 366.953 137.469 367.48 137.469ZM368.402 139.773C368.281 140.059 367.973 140.219 367.523 140.219C366.93 140.219 366.555 139.82 366.539 139.18V139.121H369.496V138.773C369.496 137.406 368.746 136.598 367.477 136.598C366.195 136.598 365.406 137.465 365.406 138.867C365.406 140.266 366.18 141.094 367.492 141.094C368.547 141.094 369.289 140.586 369.461 139.773H368.402ZM370.43 141H371.566V138.613C371.566 138.008 371.992 137.641 372.602 137.641C372.766 137.641 373.043 137.676 373.133 137.711V136.676C373.035 136.641 372.848 136.621 372.695 136.621C372.156 136.621 371.715 136.949 371.602 137.379H371.531V136.691H370.43V141Z" fill="black"/>
<path d="M355.055 155.133C356.25 155.133 357.086 154.457 357.086 153.492C357.086 152.758 356.621 152.188 355.914 152.055V151.992C356.496 151.832 356.855 151.352 356.855 150.734C356.855 149.855 356.109 149.23 355.055 149.23C354 149.23 353.254 149.855 353.254 150.734C353.254 151.348 353.621 151.836 354.195 151.992V152.055C353.488 152.188 353.023 152.758 353.023 153.492C353.023 154.457 353.859 155.133 355.055 155.133ZM355.055 154.531C354.273 154.531 353.734 154.086 353.734 153.441C353.734 152.797 354.273 152.352 355.055 152.352C355.836 152.352 356.375 152.797 356.375 153.441C356.375 154.086 355.836 154.531 355.055 154.531ZM355.055 151.758C354.391 151.758 353.945 151.375 353.945 150.801C353.945 150.219 354.387 149.832 355.055 149.832C355.723 149.832 356.164 150.219 356.164 150.801C356.164 151.375 355.719 151.758 355.055 151.758ZM360.133 155.133C361.398 155.133 362.125 154.062 362.125 152.191C362.125 150.324 361.387 149.23 360.133 149.23C358.871 149.23 358.133 150.32 358.133 152.18C358.133 154.055 358.863 155.133 360.133 155.133ZM360.133 154.52C359.301 154.52 358.84 153.688 358.84 152.18C358.84 150.691 359.309 149.848 360.133 149.848C360.957 149.848 361.418 150.684 361.418 152.18C361.418 153.691 360.965 154.52 360.133 154.52ZM364.84 155.074C365.422 155.074 365.922 154.797 366.188 154.328H366.25V155H366.891V149.117H366.219V151.453H366.16C365.922 150.992 365.426 150.715 364.84 150.715C363.77 150.715 363.07 151.574 363.07 152.895C363.07 154.219 363.762 155.074 364.84 155.074ZM364.996 151.32C365.758 151.32 366.234 151.93 366.234 152.895C366.234 153.867 365.762 154.469 364.996 154.469C364.227 154.469 363.766 153.879 363.766 152.895C363.766 151.914 364.23 151.32 364.996 151.32ZM370.289 155.074C371.355 155.074 372.055 154.211 372.055 152.895C372.055 151.57 371.359 150.715 370.289 150.715C369.711 150.715 369.199 151 368.969 151.453H368.906V149.117H368.234V155H368.875V154.328H368.938C369.203 154.797 369.703 155.074 370.289 155.074ZM370.133 151.32C370.902 151.32 371.359 151.91 371.359 152.895C371.359 153.879 370.902 154.469 370.133 154.469C369.367 154.469 368.891 153.867 368.891 152.895C368.891 151.922 369.367 151.32 370.133 151.32Z" fill="#4B5563"/>
<circle cx="461.5" cy="49" r="1.5" fill="white" stroke="#4B5563"/>
<path d="M461.5 51L461.5 131" stroke="#4B5563"/>
<path d="M445.305 141H446.582L444.625 135.363H443.238L441.281 141H442.465L442.898 139.656H444.879L445.305 141ZM443.859 136.535H443.93L444.629 138.746H443.152L443.859 136.535ZM447.43 141H448.566V138.406C448.566 137.926 448.883 137.578 449.328 137.578C449.773 137.578 450.039 137.84 450.039 138.297V141H451.133V138.363C451.133 137.906 451.43 137.578 451.891 137.578C452.371 137.578 452.609 137.832 452.609 138.344V141H453.746V138.043C453.746 137.156 453.211 136.598 452.352 136.598C451.75 136.598 451.254 136.914 451.055 137.395H450.984C450.812 136.895 450.398 136.598 449.793 136.598C449.227 136.598 448.777 136.902 448.602 137.395H448.531V136.691H447.43V141ZM457.391 141.066C458.473 141.066 459.137 140.227 459.137 138.844C459.137 137.453 458.48 136.621 457.391 136.621C456.801 136.621 456.316 136.906 456.098 137.379H456.027V135.047H454.891V141H455.992V140.324H456.062C456.293 140.793 456.781 141.066 457.391 141.066ZM456.996 137.574C457.598 137.574 457.969 138.059 457.969 138.844C457.969 139.633 457.602 140.117 456.996 140.117C456.395 140.117 456.02 139.629 456.016 138.848C456.02 138.062 456.398 137.574 456.996 137.574ZM464.059 136.691H462.922V139.176C462.922 139.75 462.559 140.105 462 140.105C461.469 140.105 461.16 139.809 461.16 139.207V136.691H460.023V139.48C460.023 140.5 460.633 141.094 461.578 141.094C462.203 141.094 462.684 140.809 462.887 140.309H462.957V141H464.059V136.691ZM465.242 141H466.379V135.047H465.242V141ZM469.117 140.211C468.723 140.211 468.445 140.016 468.445 139.695C468.445 139.387 468.684 139.211 469.172 139.176L470.043 139.121V139.438C470.043 139.875 469.645 140.211 469.117 140.211ZM468.742 141.066C469.301 141.066 469.77 140.832 469.992 140.438H470.062V141H471.164V138.059C471.164 137.137 470.52 136.598 469.379 136.598C468.297 136.598 467.566 137.098 467.492 137.895H468.539C468.633 137.637 468.906 137.496 469.316 137.496C469.785 137.496 470.043 137.699 470.043 138.059V138.41L469 138.473C467.93 138.535 467.332 138.988 467.332 139.77C467.332 140.559 467.914 141.066 468.742 141.066ZM472.281 141H473.418V138.516C473.418 137.949 473.777 137.578 474.34 137.578C474.879 137.578 475.16 137.891 475.16 138.484V141H476.297V138.215C476.297 137.184 475.754 136.598 474.793 136.598C474.16 136.598 473.652 136.898 473.453 137.383H473.383V136.691H472.281V141ZM477.301 141H480.891V140.094H478.785V140.023L480.84 137.441V136.691H477.332V137.598H479.48V137.668L477.301 140.328V141Z" fill="black"/>
<path d="M451.477 155H452.18V149.363H451.48L449.98 150.441V151.184L451.414 150.145H451.477V155ZM455.758 155.133C457.023 155.133 457.75 154.062 457.75 152.191C457.75 150.324 457.012 149.23 455.758 149.23C454.496 149.23 453.758 150.32 453.758 152.18C453.758 154.055 454.488 155.133 455.758 155.133ZM455.758 154.52C454.926 154.52 454.465 153.688 454.465 152.18C454.465 150.691 454.934 149.848 455.758 149.848C456.582 149.848 457.043 150.684 457.043 152.18C457.043 153.691 456.59 154.52 455.758 154.52ZM460.797 155.133C462.062 155.133 462.789 154.062 462.789 152.191C462.789 150.324 462.051 149.23 460.797 149.23C459.535 149.23 458.797 150.32 458.797 152.18C458.797 154.055 459.527 155.133 460.797 155.133ZM460.797 154.52C459.965 154.52 459.504 153.688 459.504 152.18C459.504 150.691 459.973 149.848 460.797 149.848C461.621 149.848 462.082 150.684 462.082 152.18C462.082 153.691 461.629 154.52 460.797 154.52ZM465.504 155.074C466.086 155.074 466.586 154.797 466.852 154.328H466.914V155H467.555V149.117H466.883V151.453H466.824C466.586 150.992 466.09 150.715 465.504 150.715C464.434 150.715 463.734 151.574 463.734 152.895C463.734 154.219 464.426 155.074 465.504 155.074ZM465.66 151.32C466.422 151.32 466.898 151.93 466.898 152.895C466.898 153.867 466.426 154.469 465.66 154.469C464.891 154.469 464.43 153.879 464.43 152.895C464.43 151.914 464.895 151.32 465.66 151.32ZM470.953 155.074C472.02 155.074 472.719 154.211 472.719 152.895C472.719 151.57 472.023 150.715 470.953 150.715C470.375 150.715 469.863 151 469.633 151.453H469.57V149.117H468.898V155H469.539V154.328H469.602C469.867 154.797 470.367 155.074 470.953 155.074ZM470.797 151.32C471.566 151.32 472.023 151.91 472.023 152.895C472.023 153.879 471.566 154.469 470.797 154.469C470.031 154.469 469.555 153.867 469.555 152.895C469.555 151.922 470.031 151.32 470.797 151.32Z" fill="#4B5563"/>
<circle cx="193" cy="49" r="1.5" fill="white" stroke="#4B5563"/>
<path d="M193 51V91" stroke="#4B5563"/>
<path d="M181.863 96.3164H182.887C183.473 96.3164 183.84 96.6523 183.84 97.1875C183.84 97.7305 183.492 98.0508 182.898 98.0508H181.863V96.3164ZM181.863 98.957H182.828L183.879 101H185.215L184.027 98.7734C184.676 98.5156 185.051 97.8906 185.051 97.1719C185.051 96.0508 184.289 95.3633 183.051 95.3633H180.684V101H181.863V98.957ZM187.848 97.4688C188.379 97.4688 188.723 97.8242 188.746 98.3945H186.91C186.949 97.8359 187.32 97.4688 187.848 97.4688ZM188.77 99.7734C188.648 100.059 188.34 100.219 187.891 100.219C187.297 100.219 186.922 99.8203 186.906 99.1797V99.1211H189.863V98.7734C189.863 97.4062 189.113 96.5977 187.844 96.5977C186.562 96.5977 185.773 97.4648 185.773 98.8672C185.773 100.266 186.547 101.094 187.859 101.094C188.914 101.094 189.656 100.586 189.828 99.7734H188.77ZM193.695 98.8086C193.695 99.5664 193.328 100.039 192.711 100.039C192.094 100.039 191.742 99.5664 191.742 98.8047C191.742 98.0508 192.098 97.5742 192.711 97.5742C193.324 97.5742 193.695 98.0508 193.695 98.8086ZM192.695 102.633C193.996 102.633 194.82 101.996 194.82 100.984V96.6914H193.719V97.3828H193.648C193.418 96.9102 192.922 96.6211 192.34 96.6211C191.246 96.6211 190.574 97.4727 190.574 98.8086C190.574 100.105 191.242 100.938 192.316 100.938C192.922 100.938 193.375 100.695 193.613 100.242H193.684V101.039C193.684 101.523 193.328 101.805 192.719 101.805C192.227 101.805 191.906 101.637 191.848 101.371H190.723C190.793 102.129 191.551 102.633 192.695 102.633ZM197.824 97.4688C198.355 97.4688 198.699 97.8242 198.723 98.3945H196.887C196.926 97.8359 197.297 97.4688 197.824 97.4688ZM198.746 99.7734C198.625 100.059 198.316 100.219 197.867 100.219C197.273 100.219 196.898 99.8203 196.883 99.1797V99.1211H199.84V98.7734C199.84 97.4062 199.09 96.5977 197.82 96.5977C196.539 96.5977 195.75 97.4648 195.75 98.8672C195.75 100.266 196.523 101.094 197.836 101.094C198.891 101.094 199.633 100.586 199.805 99.7734H198.746ZM200.773 101H201.91V98.5156C201.91 97.9492 202.27 97.5781 202.832 97.5781C203.371 97.5781 203.652 97.8906 203.652 98.4844V101H204.789V98.2148C204.789 97.1836 204.246 96.5977 203.285 96.5977C202.652 96.5977 202.145 96.8984 201.945 97.3828H201.875V96.6914H200.773V101Z" fill="black"/>
<path d="M186.203 115H186.891V113.832H187.691V113.203H186.891V109.363H185.871C184.855 110.883 183.961 112.297 183.457 113.191V113.832H186.203V115ZM184.176 113.16C184.848 112.02 185.582 110.855 186.16 110.016H186.207V113.207H184.176V113.16ZM190.637 115.133C191.805 115.133 192.605 114.352 192.605 113.207C192.605 112.098 191.855 111.32 190.785 111.32C190.266 111.32 189.867 111.48 189.594 111.801H189.531L189.691 109.992H192.285V109.363H189.141L188.832 112.559H189.492C189.723 112.156 190.145 111.926 190.656 111.926C191.395 111.926 191.902 112.453 191.902 113.227C191.902 114 191.398 114.516 190.645 114.516C189.98 114.516 189.496 114.109 189.434 113.5H188.742C188.805 114.473 189.57 115.133 190.637 115.133ZM195.293 115.074C195.875 115.074 196.375 114.797 196.641 114.328H196.703V115H197.344V109.117H196.672V111.453H196.613C196.375 110.992 195.879 110.715 195.293 110.715C194.223 110.715 193.523 111.574 193.523 112.895C193.523 114.219 194.215 115.074 195.293 115.074ZM195.449 111.32C196.211 111.32 196.688 111.93 196.688 112.895C196.688 113.867 196.215 114.469 195.449 114.469C194.68 114.469 194.219 113.879 194.219 112.895C194.219 111.914 194.684 111.32 195.449 111.32ZM200.742 115.074C201.809 115.074 202.508 114.211 202.508 112.895C202.508 111.57 201.812 110.715 200.742 110.715C200.164 110.715 199.652 111 199.422 111.453H199.359V109.117H198.688V115H199.328V114.328H199.391C199.656 114.797 200.156 115.074 200.742 115.074ZM200.586 111.32C201.355 111.32 201.812 111.91 201.812 112.895C201.812 113.879 201.355 114.469 200.586 114.469C199.82 114.469 199.344 113.867 199.344 112.895C199.344 111.922 199.82 111.32 200.586 111.32Z" fill="#4B5563"/>
<circle cx="331" cy="49" r="1.5" fill="white" stroke="#4B5563"/>
<path d="M331 51V91" stroke="#4B5563"/>
<path d="M305.43 99.4336C305.473 100.484 306.344 101.145 307.688 101.145C309.102 101.145 309.973 100.449 309.973 99.3125C309.973 98.4375 309.484 97.9492 308.352 97.7109L307.672 97.5664C307.012 97.4258 306.742 97.2266 306.742 96.8789C306.742 96.4492 307.133 96.1758 307.723 96.1758C308.293 96.1758 308.707 96.4727 308.762 96.918H309.871C309.836 95.9141 308.957 95.2188 307.715 95.2188C306.414 95.2188 305.559 95.918 305.559 96.9805C305.559 97.8398 306.062 98.375 307.09 98.5898L307.824 98.7461C308.516 98.8945 308.797 99.1016 308.797 99.4609C308.797 99.8867 308.363 100.184 307.75 100.184C307.086 100.184 306.625 99.8906 306.57 99.4336H305.43ZM311.301 95.6875V96.7344H310.617V97.6289H311.301V99.8359C311.301 100.676 311.715 101.016 312.762 101.016C312.98 101.016 313.188 100.992 313.328 100.965V100.098C313.219 100.109 313.145 100.113 312.996 100.113C312.609 100.113 312.438 99.9414 312.438 99.5664V97.6289H313.352V96.7344H312.438V95.6875H311.301ZM315.836 100.211C315.441 100.211 315.164 100.016 315.164 99.6953C315.164 99.3867 315.402 99.2109 315.891 99.1758L316.762 99.1211V99.4375C316.762 99.875 316.363 100.211 315.836 100.211ZM315.461 101.066C316.02 101.066 316.488 100.832 316.711 100.438H316.781V101H317.883V98.0586C317.883 97.1367 317.238 96.5977 316.098 96.5977C315.016 96.5977 314.285 97.0977 314.211 97.8945H315.258C315.352 97.6367 315.625 97.4961 316.035 97.4961C316.504 97.4961 316.762 97.6992 316.762 98.0586V98.4102L315.719 98.4727C314.648 98.5352 314.051 98.9883 314.051 99.7695C314.051 100.559 314.633 101.066 315.461 101.066ZM322.996 96.6914H321.859V99.1758C321.859 99.75 321.496 100.105 320.938 100.105C320.406 100.105 320.098 99.8086 320.098 99.207V96.6914H318.961V99.4805C318.961 100.5 319.57 101.094 320.516 101.094C321.141 101.094 321.621 100.809 321.824 100.309H321.895V101H322.996V96.6914ZM326.68 101.066C327.762 101.066 328.426 100.227 328.426 98.8438C328.426 97.4531 327.77 96.6211 326.68 96.6211C326.09 96.6211 325.605 96.9062 325.387 97.3789H325.316V95.0469H324.18V101H325.281V100.324H325.352C325.582 100.793 326.07 101.066 326.68 101.066ZM326.285 97.5742C326.887 97.5742 327.258 98.0586 327.258 98.8438C327.258 99.6328 326.891 100.117 326.285 100.117C325.684 100.117 325.309 99.6289 325.305 98.8477C325.309 98.0625 325.688 97.5742 326.285 97.5742ZM329.254 97.957C329.254 98.6211 329.66 99.0195 330.496 99.2031L331.277 99.3789C331.656 99.4609 331.82 99.5898 331.82 99.8008C331.82 100.078 331.516 100.262 331.074 100.262C330.621 100.262 330.344 100.094 330.258 99.8008H329.148C329.227 100.629 329.914 101.094 331.051 101.094C332.18 101.094 332.949 100.531 332.949 99.6719C332.949 99.0273 332.574 98.6758 331.738 98.4922L330.93 98.3164C330.531 98.2266 330.348 98.0977 330.348 97.8867C330.348 97.6133 330.648 97.4297 331.055 97.4297C331.477 97.4297 331.738 97.6016 331.797 97.8789H332.848C332.785 97.0547 332.141 96.5977 331.047 96.5977C329.973 96.5977 329.254 97.1406 329.254 97.957ZM335.438 100.211C335.043 100.211 334.766 100.016 334.766 99.6953C334.766 99.3867 335.004 99.2109 335.492 99.1758L336.363 99.1211V99.4375C336.363 99.875 335.965 100.211 335.438 100.211ZM335.062 101.066C335.621 101.066 336.09 100.832 336.312 100.438H336.383V101H337.484V98.0586C337.484 97.1367 336.84 96.5977 335.699 96.5977C334.617 96.5977 333.887 97.0977 333.812 97.8945H334.859C334.953 97.6367 335.227 97.4961 335.637 97.4961C336.105 97.4961 336.363 97.6992 336.363 98.0586V98.4102L335.32 98.4727C334.25 98.5352 333.652 98.9883 333.652 99.7695C333.652 100.559 334.234 101.066 335.062 101.066ZM342.598 96.6914H341.461V99.1758C341.461 99.75 341.098 100.105 340.539 100.105C340.008 100.105 339.699 99.8086 339.699 99.207V96.6914H338.562V99.4805C338.562 100.5 339.172 101.094 340.117 101.094C340.742 101.094 341.223 100.809 341.426 100.309H341.496V101H342.598V96.6914ZM346.641 98.8086C346.641 99.5664 346.273 100.039 345.656 100.039C345.039 100.039 344.688 99.5664 344.688 98.8047C344.688 98.0508 345.043 97.5742 345.656 97.5742C346.27 97.5742 346.641 98.0508 346.641 98.8086ZM345.641 102.633C346.941 102.633 347.766 101.996 347.766 100.984V96.6914H346.664V97.3828H346.594C346.363 96.9102 345.867 96.6211 345.285 96.6211C344.191 96.6211 343.52 97.4727 343.52 98.8086C343.52 100.105 344.188 100.938 345.262 100.938C345.867 100.938 346.32 100.695 346.559 100.242H346.629V101.039C346.629 101.523 346.273 101.805 345.664 101.805C345.172 101.805 344.852 101.637 344.793 101.371H343.668C343.738 102.129 344.496 102.633 345.641 102.633ZM350.77 97.4688C351.301 97.4688 351.645 97.8242 351.668 98.3945H349.832C349.871 97.8359 350.242 97.4688 350.77 97.4688ZM351.691 99.7734C351.57 100.059 351.262 100.219 350.812 100.219C350.219 100.219 349.844 99.8203 349.828 99.1797V99.1211H352.785V98.7734C352.785 97.4062 352.035 96.5977 350.766 96.5977C349.484 96.5977 348.695 97.4648 348.695 98.8672C348.695 100.266 349.469 101.094 350.781 101.094C351.836 101.094 352.578 100.586 352.75 99.7734H351.691ZM353.719 101H354.855V98.6133C354.855 98.0078 355.281 97.6406 355.891 97.6406C356.055 97.6406 356.332 97.6758 356.422 97.7109V96.6758C356.324 96.6406 356.137 96.6211 355.984 96.6211C355.445 96.6211 355.004 96.9492 354.891 97.3789H354.82V96.6914H353.719V101Z" fill="black"/>
<path d="M321.84 115H322.578L325.086 110.016V109.363H321.473V109.992H324.383V110.055L321.84 115ZM327.973 115.133C329.141 115.133 329.941 114.352 329.941 113.207C329.941 112.098 329.191 111.32 328.121 111.32C327.602 111.32 327.203 111.48 326.93 111.801H326.867L327.027 109.992H329.621V109.363H326.477L326.168 112.559H326.828C327.059 112.156 327.48 111.926 327.992 111.926C328.73 111.926 329.238 112.453 329.238 113.227C329.238 114 328.734 114.516 327.98 114.516C327.316 114.516 326.832 114.109 326.77 113.5H326.078C326.141 114.473 326.906 115.133 327.973 115.133ZM332.629 115.074C333.211 115.074 333.711 114.797 333.977 114.328H334.039V115H334.68V109.117H334.008V111.453H333.949C333.711 110.992 333.215 110.715 332.629 110.715C331.559 110.715 330.859 111.574 330.859 112.895C330.859 114.219 331.551 115.074 332.629 115.074ZM332.785 111.32C333.547 111.32 334.023 111.93 334.023 112.895C334.023 113.867 333.551 114.469 332.785 114.469C332.016 114.469 331.555 113.879 331.555 112.895C331.555 111.914 332.02 111.32 332.785 111.32ZM338.078 115.074C339.145 115.074 339.844 114.211 339.844 112.895C339.844 111.57 339.148 110.715 338.078 110.715C337.5 110.715 336.988 111 336.758 111.453H336.695V109.117H336.023V115H336.664V114.328H336.727C336.992 114.797 337.492 115.074 338.078 115.074ZM337.922 111.32C338.691 111.32 339.148 111.91 339.148 112.895C339.148 113.879 338.691 114.469 337.922 114.469C337.156 114.469 336.68 113.867 336.68 112.895C336.68 111.922 337.156 111.32 337.922 111.32Z" fill="#4B5563"/>
<circle cx="411" cy="49" r="1.5" fill="white" stroke="#4B5563"/>
<path d="M411 51V91" stroke="#4B5563"/>
<path d="M393.777 101V97.2305H393.84L395.277 100.676H396.062L397.496 97.2305H397.559V101H398.652V95.3633H397.266L395.703 99.1523H395.633L394.074 95.3633H392.684V101H393.777ZM401.816 100.164C401.207 100.164 400.863 99.6836 400.863 98.8438C400.863 98.0156 401.211 97.5273 401.816 97.5273C402.418 97.5273 402.77 98.0156 402.77 98.8438C402.77 99.6797 402.422 100.164 401.816 100.164ZM401.816 101.094C403.141 101.094 403.938 100.254 403.938 98.8438C403.938 97.4453 403.129 96.5977 401.816 96.5977C400.504 96.5977 399.695 97.4492 399.695 98.8438C399.695 100.254 400.492 101.094 401.816 101.094ZM405.191 95.6875V96.7344H404.508V97.6289H405.191V99.8359C405.191 100.676 405.605 101.016 406.652 101.016C406.871 101.016 407.078 100.992 407.219 100.965V100.098C407.109 100.109 407.035 100.113 406.887 100.113C406.5 100.113 406.328 99.9414 406.328 99.5664V97.6289H407.242V96.7344H406.328V95.6875H405.191ZM410.051 100.164C409.441 100.164 409.098 99.6836 409.098 98.8438C409.098 98.0156 409.445 97.5273 410.051 97.5273C410.652 97.5273 411.004 98.0156 411.004 98.8438C411.004 99.6797 410.656 100.164 410.051 100.164ZM410.051 101.094C411.375 101.094 412.172 100.254 412.172 98.8438C412.172 97.4453 411.363 96.5977 410.051 96.5977C408.738 96.5977 407.93 97.4492 407.93 98.8438C407.93 100.254 408.727 101.094 410.051 101.094ZM413.102 101H414.238V98.6133C414.238 98.0078 414.664 97.6406 415.273 97.6406C415.438 97.6406 415.715 97.6758 415.805 97.7109V96.6758C415.707 96.6406 415.52 96.6211 415.367 96.6211C414.828 96.6211 414.387 96.9492 414.273 97.3789H414.203V96.6914H413.102V101ZM416.594 101H417.73V98.6133C417.73 98.0078 418.156 97.6406 418.766 97.6406C418.93 97.6406 419.207 97.6758 419.297 97.7109V96.6758C419.199 96.6406 419.012 96.6211 418.859 96.6211C418.32 96.6211 417.879 96.9492 417.766 97.3789H417.695V96.6914H416.594V101ZM421.523 100.211C421.129 100.211 420.852 100.016 420.852 99.6953C420.852 99.3867 421.09 99.2109 421.578 99.1758L422.449 99.1211V99.4375C422.449 99.875 422.051 100.211 421.523 100.211ZM421.148 101.066C421.707 101.066 422.176 100.832 422.398 100.438H422.469V101H423.57V98.0586C423.57 97.1367 422.926 96.5977 421.785 96.5977C420.703 96.5977 419.973 97.0977 419.898 97.8945H420.945C421.039 97.6367 421.312 97.4961 421.723 97.4961C422.191 97.4961 422.449 97.6992 422.449 98.0586V98.4102L421.406 98.4727C420.336 98.5352 419.738 98.9883 419.738 99.7695C419.738 100.559 420.32 101.066 421.148 101.066ZM426.23 101.066C426.828 101.066 427.316 100.789 427.547 100.324H427.617V101H428.719V95.0469H427.582V97.3789H427.516C427.293 96.9023 426.812 96.6211 426.23 96.6211C425.148 96.6211 424.477 97.4688 424.477 98.8398C424.477 100.215 425.145 101.066 426.23 101.066ZM426.617 97.5742C427.223 97.5742 427.594 98.0625 427.594 98.8477C427.594 99.6367 427.227 100.117 426.617 100.117C426.008 100.117 425.645 99.6406 425.645 98.8438C425.645 98.0547 426.012 97.5742 426.617 97.5742Z" fill="black"/>
<path d="M403.43 115.129C404.809 115.129 405.598 114.02 405.598 112.082C405.598 111.461 405.508 110.941 405.324 110.512C404.973 109.68 404.32 109.23 403.477 109.23C402.32 109.23 401.5 110.039 401.5 111.172C401.5 112.266 402.277 113.059 403.352 113.059C404.023 113.059 404.574 112.738 404.852 112.191H404.867H404.883H404.914C404.875 113.691 404.355 114.504 403.438 114.504C402.883 114.504 402.457 114.184 402.305 113.656H401.582C401.762 114.562 402.473 115.129 403.43 115.129ZM403.477 112.449C402.73 112.449 402.211 111.918 402.211 111.148C402.211 110.41 402.762 109.848 403.484 109.848C404.207 109.848 404.758 110.418 404.758 111.172C404.758 111.918 404.223 112.449 403.477 112.449ZM408.625 115.133C409.891 115.133 410.617 114.062 410.617 112.191C410.617 110.324 409.879 109.23 408.625 109.23C407.363 109.23 406.625 110.32 406.625 112.18C406.625 114.055 407.355 115.133 408.625 115.133ZM408.625 114.52C407.793 114.52 407.332 113.688 407.332 112.18C407.332 110.691 407.801 109.848 408.625 109.848C409.449 109.848 409.91 110.684 409.91 112.18C409.91 113.691 409.457 114.52 408.625 114.52ZM413.332 115.074C413.914 115.074 414.414 114.797 414.68 114.328H414.742V115H415.383V109.117H414.711V111.453H414.652C414.414 110.992 413.918 110.715 413.332 110.715C412.262 110.715 411.562 111.574 411.562 112.895C411.562 114.219 412.254 115.074 413.332 115.074ZM413.488 111.32C414.25 111.32 414.727 111.93 414.727 112.895C414.727 113.867 414.254 114.469 413.488 114.469C412.719 114.469 412.258 113.879 412.258 112.895C412.258 111.914 412.723 111.32 413.488 111.32ZM418.781 115.074C419.848 115.074 420.547 114.211 420.547 112.895C420.547 111.57 419.852 110.715 418.781 110.715C418.203 110.715 417.691 111 417.461 111.453H417.398V109.117H416.727V115H417.367V114.328H417.43C417.695 114.797 418.195 115.074 418.781 115.074ZM418.625 111.32C419.395 111.32 419.852 111.91 419.852 112.895C419.852 113.879 419.395 114.469 418.625 114.469C417.859 114.469 417.383 113.867 417.383 112.895C417.383 111.922 417.859 111.32 418.625 111.32Z" fill="#4B5563"/>
<circle cx="86" cy="49" r="1.5" fill="white" stroke="#4B5563"/>
<path d="M86 51V91" stroke="#4B5563"/>
<path d="M70.8633 101V98.8047H73.1562V97.8398H70.8633V96.3711H73.375V95.3633H69.6836V101H70.8633ZM74.3906 101H75.5273V95.0469H74.3906V101ZM80.707 96.6914H79.5703V99.1758C79.5703 99.75 79.207 100.105 78.6484 100.105C78.1172 100.105 77.8086 99.8086 77.8086 99.207V96.6914H76.6719V99.4805C76.6719 100.5 77.2812 101.094 78.2266 101.094C78.8516 101.094 79.332 100.809 79.5352 100.309H79.6055V101H80.707V96.6914ZM77.7891 96.1133C78.1406 96.1133 78.3945 95.8633 78.3945 95.5195C78.3945 95.1758 78.1406 94.9297 77.7891 94.9297C77.4375 94.9297 77.1836 95.1758 77.1836 95.5195C77.1836 95.8633 77.4375 96.1133 77.7891 96.1133ZM79.6172 96.1133C79.9688 96.1133 80.2266 95.8633 80.2266 95.5195C80.2266 95.1758 79.9688 94.9297 79.6172 94.9297C79.2695 94.9297 79.0117 95.1758 79.0117 95.5195C79.0117 95.8633 79.2695 96.1133 79.6172 96.1133ZM81.7617 97.957C81.7617 98.6211 82.168 99.0195 83.0039 99.2031L83.7852 99.3789C84.1641 99.4609 84.3281 99.5898 84.3281 99.8008C84.3281 100.078 84.0234 100.262 83.582 100.262C83.1289 100.262 82.8516 100.094 82.7656 99.8008H81.6562C81.7344 100.629 82.4219 101.094 83.5586 101.094C84.6875 101.094 85.457 100.531 85.457 99.6719C85.457 99.0273 85.082 98.6758 84.2461 98.4922L83.4375 98.3164C83.0391 98.2266 82.8555 98.0977 82.8555 97.8867C82.8555 97.6133 83.1562 97.4297 83.5625 97.4297C83.9844 97.4297 84.2461 97.6016 84.3047 97.8789H85.3555C85.293 97.0547 84.6484 96.5977 83.5547 96.5977C82.4805 96.5977 81.7617 97.1406 81.7617 97.957ZM86.6914 95.6875V96.7344H86.0078V97.6289H86.6914V99.8359C86.6914 100.676 87.1055 101.016 88.1523 101.016C88.3711 101.016 88.5781 100.992 88.7188 100.965V100.098C88.6094 100.109 88.5352 100.113 88.3867 100.113C88 100.113 87.8281 99.9414 87.8281 99.5664V97.6289H88.7422V96.7344H87.8281V95.6875H86.6914ZM91.5039 97.4688C92.0352 97.4688 92.3789 97.8242 92.4023 98.3945H90.5664C90.6055 97.8359 90.9766 97.4688 91.5039 97.4688ZM92.4258 99.7734C92.3047 100.059 91.9961 100.219 91.5469 100.219C90.9531 100.219 90.5781 99.8203 90.5625 99.1797V99.1211H93.5195V98.7734C93.5195 97.4062 92.7695 96.5977 91.5 96.5977C90.2188 96.5977 89.4297 97.4648 89.4297 98.8672C89.4297 100.266 90.2031 101.094 91.5156 101.094C92.5703 101.094 93.3125 100.586 93.4844 99.7734H92.4258ZM94.4531 101H95.5898V98.6133C95.5898 98.0078 96.0156 97.6406 96.625 97.6406C96.7891 97.6406 97.0664 97.6758 97.1562 97.7109V96.6758C97.0586 96.6406 96.8711 96.6211 96.7188 96.6211C96.1797 96.6211 95.7383 96.9492 95.625 97.3789H95.5547V96.6914H94.4531V101ZM97.9453 101H99.082V98.5156C99.082 97.9492 99.4414 97.5781 100.004 97.5781C100.543 97.5781 100.824 97.8906 100.824 98.4844V101H101.961V98.2148C101.961 97.1836 101.418 96.5977 100.457 96.5977C99.8242 96.5977 99.3164 96.8984 99.1172 97.3828H99.0469V96.6914H97.9453V101Z" fill="black"/>
<path d="M76.5938 110.949V110.953H77.2734V110.949C77.2734 110.285 77.7188 109.844 78.3789 109.844C79 109.844 79.4805 110.277 79.4805 110.84C79.4805 111.293 79.3047 111.598 78.5781 112.387L76.6289 114.516V115H80.2773V114.367H77.6367V114.305L78.9922 112.848C79.918 111.855 80.1836 111.398 80.1836 110.812C80.1836 109.918 79.4102 109.23 78.3984 109.23C77.3516 109.23 76.5938 109.949 76.5938 110.949ZM83.3594 115.133C84.625 115.133 85.3516 114.062 85.3516 112.191C85.3516 110.324 84.6133 109.23 83.3594 109.23C82.0977 109.23 81.3594 110.32 81.3594 112.18C81.3594 114.055 82.0898 115.133 83.3594 115.133ZM83.3594 114.52C82.5273 114.52 82.0664 113.688 82.0664 112.18C82.0664 110.691 82.5352 109.848 83.3594 109.848C84.1836 109.848 84.6445 110.684 84.6445 112.18C84.6445 113.691 84.1914 114.52 83.3594 114.52ZM88.0664 115.074C88.6484 115.074 89.1484 114.797 89.4141 114.328H89.4766V115H90.1172V109.117H89.4453V111.453H89.3867C89.1484 110.992 88.6523 110.715 88.0664 110.715C86.9961 110.715 86.2969 111.574 86.2969 112.895C86.2969 114.219 86.9883 115.074 88.0664 115.074ZM88.2227 111.32C88.9844 111.32 89.4609 111.93 89.4609 112.895C89.4609 113.867 88.9883 114.469 88.2227 114.469C87.4531 114.469 86.9922 113.879 86.9922 112.895C86.9922 111.914 87.457 111.32 88.2227 111.32ZM93.5156 115.074C94.582 115.074 95.2812 114.211 95.2812 112.895C95.2812 111.57 94.5859 110.715 93.5156 110.715C92.9375 110.715 92.4258 111 92.1953 111.453H92.1328V109.117H91.4609V115H92.1016V114.328H92.1641C92.4297 114.797 92.9297 115.074 93.5156 115.074ZM93.3594 111.32C94.1289 111.32 94.5859 111.91 94.5859 112.895C94.5859 113.879 94.1289 114.469 93.3594 114.469C92.5938 114.469 92.1172 113.867 92.1172 112.895C92.1172 111.922 92.5938 111.32 93.3594 111.32Z" fill="#4B5563"/>
<defs>
<linearGradient id="paint0_linear_769_6158" x1="528" y1="49.0011" x2="1.00002" y2="51.002" gradientUnits="userSpaceOnUse">
<stop stop-color="#D52947"/>
<stop offset="0.504446" stop-color="#EEE161"/>
<stop offset="1" stop-color="#A4CEA1"/>
</linearGradient>
</defs>
</svg>
